<?xml version="1.0" encoding="UTF-8"?>
<svg xmlns="http://www.w3.org/2000/svg" xmlns:xlink="http://www.w3.org/1999/xlink" width="330px" height="117px" viewBox="0 0 330 117" version="1.1">
<g id="surface1">
<rect x="0" y="0" width="330" height="117" style="fill:rgb(93.72549%,93.72549%,93.72549%);fill-opacity:1;stroke:none;"/>
<path style=" stroke:none;fill-rule:nonzero;fill:rgb(9.019608%,9.019608%,9.019608%);fill-opacity:1;" d="M 80.550781 70.199219 L 90.945312 70.199219 L 90.945312 72.800781 L 96.140625 72.800781 L 96.140625 75.398438 L 98.738281 75.398438 L 98.738281 78 L 101.339844 78 L 101.339844 80.601562 L 103.9375 80.601562 L 103.9375 98.800781 L 101.339844 98.800781 L 101.339844 101.398438 L 98.738281 101.398438 L 98.738281 104 L 96.140625 104 L 96.140625 106.601562 L 90.945312 106.601562 L 90.945312 109.199219 L 80.550781 109.199219 L 80.550781 106.601562 L 75.355469 106.601562 L 75.355469 104 L 72.757812 104 L 72.757812 101.398438 L 70.15625 101.398438 L 70.15625 98.800781 L 67.558594 98.800781 L 67.558594 80.601562 L 70.15625 80.601562 L 70.15625 78 L 72.757812 78 L 72.757812 75.398438 L 75.355469 75.398438 L 75.355469 72.800781 L 80.550781 72.800781 Z M 80.550781 70.199219 "/>
<path style=" stroke:none;fill-rule:nonzero;fill:rgb(25.882353%,25.882353%,25.882353%);fill-opacity:1;" d="M 168.898438 13 L 200.078125 13 L 200.078125 15.601562 L 202.675781 15.601562 L 202.675781 18.199219 L 205.277344 18.199219 L 205.277344 20.800781 L 207.875 20.800781 L 207.875 28.601562 L 205.277344 28.601562 L 205.277344 36.398438 L 207.875 36.398438 L 207.875 46.800781 L 205.277344 46.800781 L 205.277344 49.398438 L 202.675781 49.398438 L 202.675781 52 L 168.898438 52 L 168.898438 44.199219 L 202.675781 44.199219 L 202.675781 39 L 200.078125 39 L 200.078125 36.398438 L 176.691406 36.398438 L 176.691406 28.601562 L 200.078125 28.601562 L 200.078125 20.800781 L 168.898438 20.800781 Z M 168.898438 13 "/>
<path style=" stroke:none;fill-rule:nonzero;fill:rgb(22.352941%,22.352941%,22.352941%);fill-opacity:1;" d="M 252.046875 13 L 283.226562 13 L 283.226562 15.601562 L 285.828125 15.601562 L 285.828125 18.199219 L 288.425781 18.199219 L 288.425781 31.199219 L 285.828125 31.199219 L 285.828125 33.800781 L 283.226562 33.800781 L 283.226562 36.398438 L 257.242188 36.398438 L 257.242188 44.199219 L 291.023438 44.199219 L 291.023438 52 L 252.046875 52 L 252.046875 36.398438 L 254.644531 36.398438 L 254.644531 33.800781 L 257.242188 33.800781 L 257.242188 31.199219 L 259.84375 31.199219 L 259.84375 28.601562 L 283.226562 28.601562 L 283.226562 20.800781 L 252.046875 20.800781 Z M 252.046875 13 "/>
<path style=" stroke:none;fill-rule:nonzero;fill:rgb(21.568627%,21.568627%,21.568627%);fill-opacity:1;" d="M 270.234375 70.199219 L 301.417969 70.199219 L 301.417969 78 L 270.234375 78 L 270.234375 83.199219 L 296.21875 83.199219 L 296.21875 91 L 270.234375 91 L 270.234375 101.398438 L 301.417969 101.398438 L 301.417969 109.199219 L 270.234375 109.199219 L 270.234375 106.601562 L 267.636719 106.601562 L 267.636719 104 L 265.039062 104 L 265.039062 75.398438 L 267.636719 75.398438 L 267.636719 72.800781 L 270.234375 72.800781 Z M 270.234375 70.199219 "/>
<path style=" stroke:none;fill-rule:nonzero;fill:rgb(21.568627%,21.568627%,21.568627%);fill-opacity:1;" d="M 44.171875 13 L 75.355469 13 L 75.355469 20.800781 L 44.171875 20.800781 L 44.171875 28.601562 L 67.558594 28.601562 L 67.558594 33.800781 L 44.171875 33.800781 L 44.171875 44.199219 L 75.355469 44.199219 L 75.355469 52 L 44.171875 52 L 44.171875 49.398438 L 38.976562 49.398438 L 38.976562 44.199219 L 36.378906 44.199219 L 36.378906 20.800781 L 38.976562 20.800781 L 38.976562 18.199219 L 41.574219 18.199219 L 41.574219 15.601562 L 44.171875 15.601562 Z M 44.171875 13 "/>
<path style=" stroke:none;fill-rule:nonzero;fill:rgb(8.627451%,8.627451%,8.627451%);fill-opacity:1;" d="M 233.859375 70.199219 L 257.242188 70.199219 L 257.242188 78 L 231.261719 78 L 231.261719 80.601562 L 228.660156 80.601562 L 228.660156 83.199219 L 226.0625 83.199219 L 226.0625 96.199219 L 228.660156 96.199219 L 228.660156 98.800781 L 231.261719 98.800781 L 231.261719 101.398438 L 233.859375 101.398438 L 233.859375 104 L 249.449219 104 L 249.449219 101.398438 L 252.046875 101.398438 L 252.046875 96.199219 L 249.449219 96.199219 L 249.449219 93.601562 L 239.054688 93.601562 L 239.054688 88.398438 L 257.242188 88.398438 L 257.242188 109.199219 L 233.859375 109.199219 L 233.859375 106.601562 L 228.660156 106.601562 L 228.660156 104 L 226.0625 104 L 226.0625 101.398438 L 223.464844 101.398438 L 223.464844 98.800781 L 220.867188 98.800781 L 220.867188 80.601562 L 223.464844 80.601562 L 223.464844 78 L 226.0625 78 L 226.0625 75.398438 L 228.660156 75.398438 L 228.660156 72.800781 L 233.859375 72.800781 Z M 233.859375 70.199219 "/>
<path style=" stroke:none;fill-rule:nonzero;fill:rgb(23.137255%,23.137255%,23.137255%);fill-opacity:1;" d="M 38.976562 70.199219 L 64.960938 70.199219 L 64.960938 78 L 36.378906 78 L 36.378906 80.601562 L 33.78125 80.601562 L 33.78125 98.800781 L 36.378906 98.800781 L 36.378906 101.398438 L 64.960938 101.398438 L 64.960938 109.199219 L 38.976562 109.199219 L 38.976562 106.601562 L 33.78125 106.601562 L 33.78125 104 L 31.179688 104 L 31.179688 101.398438 L 28.582031 101.398438 L 28.582031 96.199219 L 25.984375 96.199219 L 25.984375 83.199219 L 28.582031 83.199219 L 28.582031 78 L 31.179688 78 L 31.179688 75.398438 L 36.378906 75.398438 L 36.378906 72.800781 L 38.976562 72.800781 Z M 38.976562 70.199219 "/>
<path style=" stroke:none;fill-rule:nonzero;fill:rgb(21.960784%,21.960784%,21.960784%);fill-opacity:1;" d="M 124.722656 13 L 132.519531 13 L 132.519531 39 L 135.117188 39 L 135.117188 41.601562 L 137.714844 41.601562 L 137.714844 44.199219 L 153.308594 44.199219 L 153.308594 41.601562 L 155.90625 41.601562 L 155.90625 36.398438 L 158.503906 36.398438 L 158.503906 13 L 163.699219 13 L 163.699219 39 L 161.101562 39 L 161.101562 44.199219 L 158.503906 44.199219 L 158.503906 46.800781 L 155.90625 46.800781 L 155.90625 49.398438 L 150.707031 49.398438 L 150.707031 52 L 137.714844 52 L 137.714844 49.398438 L 135.117188 49.398438 L 135.117188 46.800781 L 129.921875 46.800781 L 129.921875 41.601562 L 127.324219 41.601562 L 127.324219 39 L 124.722656 39 Z M 124.722656 13 "/>
<path style=" stroke:none;fill-rule:nonzero;fill:rgb(21.568627%,21.568627%,21.568627%);fill-opacity:1;" d="M 80.550781 13 L 119.527344 13 L 119.527344 20.800781 L 103.9375 20.800781 L 103.9375 52 L 96.140625 52 L 96.140625 20.800781 L 80.550781 20.800781 Z M 80.550781 13 "/>
<path style=" stroke:none;fill-rule:nonzero;fill:rgb(90.196078%,90.196078%,90.196078%);fill-opacity:1;" d="M 77.953125 78 L 93.542969 78 L 93.542969 80.601562 L 96.140625 80.601562 L 96.140625 83.199219 L 98.738281 83.199219 L 98.738281 96.199219 L 96.140625 96.199219 L 96.140625 98.800781 L 93.542969 98.800781 L 93.542969 101.398438 L 77.953125 101.398438 L 77.953125 98.800781 L 75.355469 98.800781 L 75.355469 96.199219 L 72.757812 96.199219 L 72.757812 83.199219 L 75.355469 83.199219 L 75.355469 80.601562 L 77.953125 80.601562 Z M 77.953125 78 "/>
<path style=" stroke:none;fill-rule:nonzero;fill:rgb(27.45098%,27.45098%,27.45098%);fill-opacity:1;" d="M 213.070312 13 L 236.457031 13 L 236.457031 15.601562 L 241.652344 15.601562 L 241.652344 18.199219 L 244.253906 18.199219 L 244.253906 23.398438 L 246.851562 23.398438 L 246.851562 52 L 239.054688 52 L 239.054688 20.800781 L 213.070312 20.800781 Z M 213.070312 13 "/>
<path style=" stroke:none;fill-rule:nonzero;fill:rgb(23.921569%,23.921569%,23.921569%);fill-opacity:1;" d="M 109.132812 70.199219 L 116.929688 70.199219 L 116.929688 101.398438 L 140.316406 101.398438 L 140.316406 109.199219 L 116.929688 109.199219 L 116.929688 106.601562 L 114.332031 106.601562 L 114.332031 104 L 111.730469 104 L 111.730469 101.398438 L 109.132812 101.398438 Z M 109.132812 70.199219 "/>
<path style=" stroke:none;fill-rule:nonzero;fill:rgb(15.686275%,15.686275%,15.686275%);fill-opacity:1;" d="M 200.078125 72.800781 L 202.675781 72.800781 L 202.675781 75.398438 L 205.277344 75.398438 L 205.277344 80.601562 L 207.875 80.601562 L 207.875 85.800781 L 210.472656 85.800781 L 210.472656 91 L 213.070312 91 L 213.070312 96.199219 L 215.667969 96.199219 L 215.667969 101.398438 L 218.269531 101.398438 L 218.269531 106.601562 L 220.867188 106.601562 L 220.867188 109.199219 L 213.070312 109.199219 L 213.070312 104 L 210.472656 104 L 210.472656 98.800781 L 207.875 98.800781 L 207.875 93.601562 L 205.277344 93.601562 L 205.277344 88.398438 L 202.675781 88.398438 L 202.675781 85.800781 L 200.078125 85.800781 L 200.078125 91 L 197.480469 91 L 197.480469 96.199219 L 194.882812 96.199219 L 194.882812 101.398438 L 192.285156 101.398438 L 192.285156 106.601562 L 189.683594 106.601562 L 189.683594 109.199219 L 184.488281 109.199219 L 184.488281 104 L 187.085938 104 L 187.085938 98.800781 L 189.683594 98.800781 L 189.683594 93.601562 L 192.285156 93.601562 L 192.285156 88.398438 L 194.882812 88.398438 L 194.882812 83.199219 L 197.480469 83.199219 L 197.480469 78 L 200.078125 78 Z M 200.078125 72.800781 "/>
<path style=" stroke:none;fill-rule:nonzero;fill:rgb(19.607843%,19.607843%,19.607843%);fill-opacity:1;" d="M 148.109375 70.199219 L 153.308594 70.199219 L 153.308594 101.398438 L 179.292969 101.398438 L 179.292969 109.199219 L 155.90625 109.199219 L 155.90625 106.601562 L 150.707031 106.601562 L 150.707031 104 L 148.109375 104 Z M 148.109375 70.199219 "/>
<path style=" stroke:none;fill-rule:nonzero;fill:rgb(15.686275%,15.686275%,15.686275%);fill-opacity:1;" d="M 41.574219 33.800781 L 44.171875 33.800781 L 44.171875 44.199219 L 75.355469 44.199219 L 75.355469 52 L 44.171875 52 L 44.171875 49.398438 L 38.976562 49.398438 L 38.976562 44.199219 L 41.574219 44.199219 Z M 41.574219 33.800781 "/>
<path style=" stroke:none;fill-rule:nonzero;fill:rgb(9.411765%,9.411765%,9.411765%);fill-opacity:1;" d="M 75.355469 72.800781 L 80.550781 72.800781 L 80.550781 78 L 77.953125 78 L 77.953125 80.601562 L 75.355469 80.601562 L 75.355469 83.199219 L 72.757812 83.199219 L 72.757812 96.199219 L 75.355469 96.199219 L 75.355469 98.800781 L 77.953125 98.800781 L 77.953125 101.398438 L 80.550781 101.398438 L 80.550781 104 L 90.945312 104 L 90.945312 109.199219 L 80.550781 109.199219 L 80.550781 106.601562 L 75.355469 106.601562 L 75.355469 104 L 72.757812 104 L 72.757812 101.398438 L 70.15625 101.398438 L 70.15625 98.800781 L 67.558594 98.800781 L 67.558594 80.601562 L 70.15625 80.601562 L 70.15625 78 L 72.757812 78 L 72.757812 75.398438 L 75.355469 75.398438 Z M 75.355469 72.800781 "/>
<path style=" stroke:none;fill-rule:nonzero;fill:rgb(15.294118%,15.294118%,15.294118%);fill-opacity:1;" d="M 36.378906 20.800781 L 41.574219 20.800781 L 41.574219 26 L 44.171875 26 L 44.171875 28.601562 L 67.558594 28.601562 L 67.558594 33.800781 L 41.574219 33.800781 L 41.574219 44.199219 L 36.378906 44.199219 Z M 36.378906 20.800781 "/>
<path style=" stroke:none;fill-rule:nonzero;fill:rgb(18.039216%,18.039216%,18.039216%);fill-opacity:1;" d="M 158.503906 13 L 163.699219 13 L 163.699219 39 L 161.101562 39 L 161.101562 44.199219 L 158.503906 44.199219 L 158.503906 46.800781 L 155.90625 46.800781 L 155.90625 49.398438 L 150.707031 49.398438 L 150.707031 46.800781 L 140.316406 46.800781 L 140.316406 44.199219 L 153.308594 44.199219 L 153.308594 41.601562 L 155.90625 41.601562 L 155.90625 36.398438 L 158.503906 36.398438 Z M 158.503906 13 "/>
<path style=" stroke:none;fill-rule:nonzero;fill:rgb(28.627451%,28.627451%,28.627451%);fill-opacity:1;" d="M 233.859375 70.199219 L 257.242188 70.199219 L 257.242188 78 L 233.859375 78 Z M 233.859375 70.199219 "/>
<path style=" stroke:none;fill-rule:nonzero;fill:rgb(16.862745%,16.862745%,16.862745%);fill-opacity:1;" d="M 194.882812 83.199219 L 197.480469 83.199219 L 197.480469 88.398438 L 200.078125 88.398438 L 200.078125 91 L 197.480469 91 L 197.480469 96.199219 L 194.882812 96.199219 L 194.882812 101.398438 L 192.285156 101.398438 L 192.285156 106.601562 L 189.683594 106.601562 L 189.683594 109.199219 L 184.488281 109.199219 L 184.488281 104 L 187.085938 104 L 187.085938 98.800781 L 189.683594 98.800781 L 189.683594 93.601562 L 192.285156 93.601562 L 192.285156 88.398438 L 194.882812 88.398438 Z M 194.882812 83.199219 "/>
<path style=" stroke:none;fill-rule:nonzero;fill:rgb(14.901961%,14.901961%,14.901961%);fill-opacity:1;" d="M 228.660156 72.800781 L 233.859375 72.800781 L 233.859375 78 L 231.261719 78 L 231.261719 80.601562 L 228.660156 80.601562 L 228.660156 83.199219 L 226.0625 83.199219 L 226.0625 93.601562 L 223.464844 93.601562 L 223.464844 98.800781 L 220.867188 98.800781 L 220.867188 80.601562 L 223.464844 80.601562 L 223.464844 78 L 226.0625 78 L 226.0625 75.398438 L 228.660156 75.398438 Z M 228.660156 72.800781 "/>
<path style=" stroke:none;fill-rule:nonzero;fill:rgb(38.823529%,38.823529%,38.823529%);fill-opacity:1;" d="M 41.574219 33.800781 L 44.171875 33.800781 L 44.171875 44.199219 L 75.355469 44.199219 L 75.355469 46.800781 L 44.171875 46.800781 L 44.171875 49.398438 L 38.976562 49.398438 L 38.976562 44.199219 L 41.574219 44.199219 Z M 41.574219 33.800781 "/>
<path style=" stroke:none;fill-rule:nonzero;fill:rgb(18.039216%,18.039216%,18.039216%);fill-opacity:1;" d="M 98.738281 93.601562 L 103.9375 93.601562 L 103.9375 98.800781 L 101.339844 98.800781 L 101.339844 101.398438 L 98.738281 101.398438 L 98.738281 104 L 96.140625 104 L 96.140625 106.601562 L 90.945312 106.601562 L 90.945312 104 L 80.550781 104 L 80.550781 101.398438 L 93.542969 101.398438 L 93.542969 98.800781 L 96.140625 98.800781 L 96.140625 96.199219 L 98.738281 96.199219 Z M 98.738281 93.601562 "/>
<path style=" stroke:none;fill-rule:nonzero;fill:rgb(24.705882%,24.705882%,24.705882%);fill-opacity:1;" d="M 80.550781 70.199219 L 90.945312 70.199219 L 90.945312 78 L 80.550781 78 Z M 80.550781 70.199219 "/>
<path style=" stroke:none;fill-rule:nonzero;fill:rgb(10.588235%,10.588235%,10.588235%);fill-opacity:1;" d="M 267.636719 72.800781 L 272.835938 72.800781 L 272.835938 78 L 270.234375 78 L 270.234375 85.800781 L 267.636719 85.800781 L 267.636719 80.601562 L 265.039062 80.601562 L 265.039062 75.398438 L 267.636719 75.398438 Z M 267.636719 72.800781 "/>
<path style=" stroke:none;fill-rule:nonzero;fill:rgb(23.529412%,23.529412%,23.529412%);fill-opacity:1;" d="M 187.085938 98.800781 L 189.683594 98.800781 L 189.683594 104 L 192.285156 104 L 192.285156 106.601562 L 189.683594 106.601562 L 189.683594 109.199219 L 184.488281 109.199219 L 184.488281 104 L 187.085938 104 Z M 187.085938 98.800781 "/>
<path style=" stroke:none;fill-rule:nonzero;fill:rgb(12.54902%,12.54902%,12.54902%);fill-opacity:1;" d="M 236.457031 15.601562 L 241.652344 15.601562 L 241.652344 18.199219 L 244.253906 18.199219 L 244.253906 23.398438 L 239.054688 23.398438 L 239.054688 20.800781 L 236.457031 20.800781 Z M 236.457031 15.601562 "/>
</g>
</svg>
