<svg id="svg" version="1.1" xmlns="http://www.w3.org/2000/svg" style="display: block;" viewBox="0 0 127 45"><path d="M0,0 L127,0 L127,45 L0,45 Z " transform="translate(0,0)" style="fill: #EFEFEF;"/><path d="M0,0 L4,0 L4,1 L6,1 L6,2 L7,2 L7,3 L8,3 L8,4 L9,4 L9,11 L8,11 L8,12 L7,12 L7,13 L6,13 L6,14 L4,14 L4,15 L0,15 L0,14 L-2,14 L-2,13 L-3,13 L-3,12 L-4,12 L-4,11 L-5,11 L-5,4 L-4,4 L-4,3 L-3,3 L-3,2 L-2,2 L-2,1 L0,1 Z " transform="translate(31,27)" style="fill: #272727;"/><path d="M0,0 L12,0 L12,1 L13,1 L13,2 L14,2 L14,3 L15,3 L15,6 L14,6 L14,9 L15,9 L15,13 L14,13 L14,14 L13,14 L13,15 L0,15 L0,12 L13,12 L13,10 L12,10 L12,9 L3,9 L3,6 L12,6 L12,3 L0,3 Z " transform="translate(65,5)" style="fill: #424242;"/><path d="M0,0 L12,0 L12,1 L13,1 L13,2 L14,2 L14,7 L13,7 L13,8 L12,8 L12,9 L2,9 L2,12 L15,12 L15,15 L0,15 L0,9 L1,9 L1,8 L2,8 L2,7 L3,7 L3,6 L12,6 L12,3 L0,3 Z " transform="translate(97,5)" style="fill: #393939;"/><path d="M0,0 L12,0 L12,3 L0,3 L0,5 L10,5 L10,8 L0,8 L0,12 L12,12 L12,15 L0,15 L0,14 L-1,14 L-1,13 L-2,13 L-2,2 L-1,2 L-1,1 L0,1 Z " transform="translate(104,27)" style="fill: #353535;"/><path d="M0,0 L12,0 L12,3 L0,3 L0,6 L9,6 L9,8 L0,8 L0,12 L12,12 L12,15 L0,15 L0,14 L-2,14 L-2,12 L-3,12 L-3,3 L-2,3 L-2,2 L-1,2 L-1,1 L0,1 Z " transform="translate(17,5)" style="fill: #373737;"/><path d="M0,0 L9,0 L9,3 L-1,3 L-1,4 L-2,4 L-2,5 L-3,5 L-3,10 L-2,10 L-2,11 L-1,11 L-1,12 L0,12 L0,13 L6,13 L6,12 L7,12 L7,10 L6,10 L6,9 L2,9 L2,7 L9,7 L9,15 L0,15 L0,14 L-2,14 L-2,13 L-3,13 L-3,12 L-4,12 L-4,11 L-5,11 L-5,4 L-4,4 L-4,3 L-3,3 L-3,2 L-2,2 L-2,1 L0,1 Z " transform="translate(90,27)" style="fill: #161616;"/><path d="M0,0 L10,0 L10,3 L-1,3 L-1,4 L-2,4 L-2,11 L-1,11 L-1,12 L10,12 L10,15 L0,15 L0,14 L-2,14 L-2,13 L-3,13 L-3,12 L-4,12 L-4,10 L-5,10 L-5,5 L-4,5 L-4,3 L-3,3 L-3,2 L-1,2 L-1,1 L0,1 Z " transform="translate(15,27)" style="fill: #3B3B3B;"/><path d="M0,0 L3,0 L3,10 L4,10 L4,11 L5,11 L5,12 L11,12 L11,11 L12,11 L12,9 L13,9 L13,0 L15,0 L15,10 L14,10 L14,12 L13,12 L13,13 L12,13 L12,14 L10,14 L10,15 L5,15 L5,14 L4,14 L4,13 L2,13 L2,11 L1,11 L1,10 L0,10 Z " transform="translate(48,5)" style="fill: #383838;"/><path d="M0,0 L15,0 L15,3 L9,3 L9,15 L6,15 L6,3 L0,3 Z " transform="translate(31,5)" style="fill: #373737;"/><path d="M0,0 L6,0 L6,1 L7,1 L7,2 L8,2 L8,7 L7,7 L7,8 L6,8 L6,9 L0,9 L0,8 L-1,8 L-1,7 L-2,7 L-2,2 L-1,2 L-1,1 L0,1 Z " transform="translate(30,30)" style="fill: #E6E6E6;"/><path d="M0,0 L9,0 L9,1 L11,1 L11,2 L12,2 L12,4 L13,4 L13,15 L10,15 L10,3 L0,3 Z " transform="translate(82,5)" style="fill: #424242;"/><path d="M0,0 L3,0 L3,12 L12,12 L12,15 L3,15 L3,14 L2,14 L2,13 L1,13 L1,12 L0,12 Z " transform="translate(42,27)" style="fill: #3D3D3D;"/><path d="M0,0 L1,0 L1,1 L2,1 L2,3 L3,3 L3,5 L4,5 L4,7 L5,7 L5,9 L6,9 L6,11 L7,11 L7,13 L8,13 L8,14 L5,14 L5,12 L4,12 L4,10 L3,10 L3,8 L2,8 L2,6 L1,6 L1,5 L0,5 L0,7 L-1,7 L-1,9 L-2,9 L-2,11 L-3,11 L-3,13 L-4,13 L-4,14 L-6,14 L-6,12 L-5,12 L-5,10 L-4,10 L-4,8 L-3,8 L-3,6 L-2,6 L-2,4 L-1,4 L-1,2 L0,2 Z " transform="translate(77,28)" style="fill: #282828;"/><path d="M0,0 L2,0 L2,12 L12,12 L12,15 L3,15 L3,14 L1,14 L1,13 L0,13 Z " transform="translate(57,27)" style="fill: #323232;"/><path d="M0,0 L1,0 L1,4 L13,4 L13,7 L1,7 L1,6 L-1,6 L-1,4 L0,4 Z " transform="translate(16,13)" style="fill: #282828;"/><path d="M0,0 L2,0 L2,2 L1,2 L1,3 L0,3 L0,4 L-1,4 L-1,9 L0,9 L0,10 L1,10 L1,11 L2,11 L2,12 L6,12 L6,14 L2,14 L2,13 L0,13 L0,12 L-1,12 L-1,11 L-2,11 L-2,10 L-3,10 L-3,3 L-2,3 L-2,2 L-1,2 L-1,1 L0,1 Z " transform="translate(29,28)" style="fill: #181818;"/><path d="M0,0 L2,0 L2,2 L3,2 L3,3 L12,3 L12,5 L2,5 L2,9 L0,9 Z " transform="translate(14,8)" style="fill: #272727;"/><path d="M0,0 L2,0 L2,10 L1,10 L1,12 L0,12 L0,13 L-1,13 L-1,14 L-3,14 L-3,13 L-7,13 L-7,12 L-2,12 L-2,11 L-1,11 L-1,9 L0,9 Z " transform="translate(61,5)" style="fill: #2E2E2E;"/><path d="M0,0 L9,0 L9,3 L0,3 Z " transform="translate(90,27)" style="fill: #494949;"/><path d="M0,0 L1,0 L1,2 L2,2 L2,3 L1,3 L1,5 L0,5 L0,7 L-1,7 L-1,9 L-2,9 L-2,10 L-4,10 L-4,8 L-3,8 L-3,6 L-2,6 L-2,4 L-1,4 L-1,2 L0,2 Z " transform="translate(75,32)" style="fill: #303030;"/><path d="M0,0 L2,0 L2,2 L1,2 L1,3 L0,3 L0,4 L-1,4 L-1,8 L-2,8 L-2,10 L-3,10 L-3,3 L-2,3 L-2,2 L-1,2 L-1,1 L0,1 Z " transform="translate(88,28)" style="fill: #262626;"/><path d="M0,0 L1,0 L1,4 L13,4 L13,5 L1,5 L1,6 L-1,6 L-1,4 L0,4 Z " transform="translate(16,13)" style="fill: #636363;"/><path d="M0,0 L2,0 L2,2 L1,2 L1,3 L0,3 L0,4 L-1,4 L-1,5 L-3,5 L-3,4 L-7,4 L-7,3 L-2,3 L-2,2 L-1,2 L-1,1 L0,1 Z " transform="translate(38,36)" style="fill: #2E2E2E;"/></svg>