<svg id="svg" version="1.1" xmlns="http://www.w3.org/2000/svg" style="display: block;" viewBox="0 0 748 748"><path d="M0 0 C246.84 0 493.68 0 748 0 C748 246.84 748 493.68 748 748 C501.16 748 254.32 748 0 748 C0 501.16 0 254.32 0 0 Z " transform="translate(0,0)" style="fill: #FEFEFE;"/><path d="M0 0 C4.91058615 1.40430242 7.53097946 4.37824539 10.6875 8.1875 C11.20715332 8.80681396 11.72680664 9.42612793 12.26220703 10.06420898 C20.8117608 20.44283014 28.08415607 31.42647179 33 44 C33.33902344 44.86496094 33.67804688 45.72992188 34.02734375 46.62109375 C38.33087163 59.65066895 37.20650883 75.40758734 31.74609375 87.859375 C27.88400501 95.47831845 22.90400246 103.26156496 15 107 C14.9906543 105.74453369 14.98130859 104.48906738 14.97167969 103.19555664 C14.93158216 98.50428764 14.86576922 93.81366087 14.79248047 89.12280273 C14.764385 87.09879859 14.74311405 85.07468706 14.72900391 83.05053711 C14.70741552 80.12818879 14.66068488 77.20711623 14.609375 74.28515625 C14.60753204 72.94397484 14.60753204 72.94397484 14.60565186 71.57569885 C14.46084926 65.25877799 12.94008056 60.57110838 10 55 C9.67 54.34 9.34 53.68 9 53 C9 121.64 9 190.28 9 261 C10.98 257.37 12.96 253.74 15 250 C24.81795394 232.78376517 36.27843534 217.22416365 49.6640625 202.58203125 C50.94588751 201.16516447 52.22113713 199.74184074 53.46411133 198.29077148 C58.51938702 192.39828791 63.937686 186.91386063 69.4375 181.4375 C70.34048828 180.53064453 71.24347656 179.62378906 72.17382812 178.68945312 C77.28669169 173.58399414 82.4897106 168.67306713 88 164 C89.33804688 162.83984375 89.33804688 162.83984375 90.703125 161.65625 C104.85453983 149.67529757 120.02263946 138.91531882 135 128 C139.33256004 129.66555836 142.13552866 132.87435843 145.3125 136.125 C145.89572021 136.71539062 146.47894043 137.30578125 147.07983398 137.9140625 C150.55897117 141.45878879 153.92271279 145.06724832 157.13671875 148.85546875 C159.14118585 151.16249692 161.21387308 153.39353467 163.30004883 155.62646484 C168.42029682 161.10785263 173.3173949 166.69313427 178.01953125 172.54296875 C180.61060812 175.75753947 183.29610494 178.88012108 186 182 C183.64407839 184.6451692 181.26689749 186.02949956 178.08984375 187.56640625 C177.10878662 188.04682373 176.12772949 188.52724121 175.11694336 189.0222168 C174.06772705 189.53051025 173.01851074 190.03880371 171.9375 190.5625 C157.49865462 197.671336 143.50953004 205.37335699 129.76171875 213.734375 C127.17929877 215.30079426 124.57788906 216.82692362 121.95703125 218.328125 C100.41079005 230.69787021 79.66357869 245.18798956 60.90625 261.49609375 C58.15686791 263.86484902 55.34494995 266.12274796 52.5 268.375 C42.18914467 276.79202476 33.09587105 286.44755739 25 297 C24.32453125 297.87011719 23.6490625 298.74023438 22.953125 299.63671875 C17.61390492 306.72463688 13.2608945 314.23746613 9 322 C9.69351562 321.44183594 10.38703125 320.88367188 11.1015625 320.30859375 C13.6025348 318.31657943 16.12482554 316.35541301 18.65356445 314.39892578 C24.35991933 309.96883266 29.89419003 305.40298387 35.3125 300.625 C42.52298846 294.29299422 50.04708365 288.459527 57.72705078 282.7109375 C60.06885691 280.94816872 62.39282237 279.1637319 64.71484375 277.375 C85.34140803 261.56888655 107.32240116 247.95659993 129.92333984 235.18115234 C132.23277975 233.8676007 134.53228317 232.53747512 136.83203125 231.20703125 C156.91167188 219.65142012 177.49534715 208.85167895 198.4375 198.9375 C199.10442871 198.62127686 199.77135742 198.30505371 200.45849609 197.97924805 C204.73722482 196 204.73722482 196 207 196 C207 205.57 207 215.14 207 225 C194.6635299 230.60748641 194.6635299 230.60748641 189.6796875 232.5078125 C188.58140625 232.93070557 187.483125 233.35359863 186.3515625 233.78930664 C185.20429687 234.23008545 184.05703125 234.67086426 182.875 235.125 C143.49869635 250.48827288 104.30413189 268.51699482 70.04882812 293.51611328 C67.24987229 295.5432884 64.41646584 297.51955923 61.58349609 299.4987793 C49.0719582 308.25116229 36.84380659 317.36157004 25 327 C25.53874756 326.63720947 26.07749512 326.27441895 26.63256836 325.90063477 C48.4677848 311.26162174 71.31587659 298.40130626 95 287 C96.13179688 286.45472656 97.26359375 285.90945313 98.4296875 285.34765625 C134.0732998 268.47846335 170.97370986 252.67992783 209 242 C209.33 237.71 209.66 233.42 210 229 C212.70182292 228.0234375 215.40364583 227.046875 218.10546875 226.0703125 C219.96010256 225.38452348 221.79903764 224.65363092 223.61328125 223.8671875 C226 223 226 223 230 223 C230 233.89 230 244.78 230 256 C226.7 256.66 223.4 257.32 220 258 C188.75408238 265.39376403 158.51283388 275.32304728 129 288 C128.32054321 288.29106628 127.64108643 288.58213257 126.94104004 288.88201904 C99.34213374 300.67439003 99.34213374 300.67439003 73 315 C75.16696224 314.22999797 77.33355455 313.45895484 79.5 312.6875 C80.7065625 312.25824219 81.913125 311.82898438 83.15625 311.38671875 C85.67858694 310.48455836 88.18006381 309.54957665 90.68359375 308.59399414 C95.04785882 306.95563587 99.46265142 305.51579296 103.90625 304.109375 C104.73989075 303.8439389 105.57353149 303.57850281 106.43243408 303.30502319 C109.1207058 302.45042427 111.810152 301.59962384 114.5 300.75 C115.42171997 300.45865173 116.34343994 300.16730347 117.29309082 299.86712646 C152.96762421 288.60209621 188.77587246 279.22229452 225.6953125 273.03125 C226.50452148 272.89493164 227.31373047 272.75861328 228.14746094 272.61816406 C230.18761022 272.28097148 232.23041919 271.95997455 234.2734375 271.640625 C235.17320312 271.42921875 236.07296875 271.2178125 237 271 C237.33 270.34 237.66 269.68 238 269 C240.40844727 268.40576172 240.40844727 268.40576172 243.56640625 267.9296875 C244.57904541 267.77226074 245.59168457 267.61483398 246.63500977 267.45263672 C247.93108154 267.2620166 249.22715332 267.07139648 250.5625 266.875 C254.666875 266.25625 258.77125 265.6375 263 265 C263 278.53 263 292.06 263 306 C257.52880684 306.60791035 252.63449585 307.11686281 247.22265625 307.140625 C191.66589472 307.80973295 135.5652345 315.73987404 81.71044922 329.3190918 C79.53402452 329.8658445 77.35355648 330.39649048 75.171875 330.921875 C58.87535327 334.86578209 42.84943157 339.81145947 26.8125 344.6875 C25.85327637 344.97794189 24.89405273 345.26838379 23.90576172 345.56762695 C19.90381636 346.78456214 15.91208126 348.012353 11.953125 349.36328125 C10.27476562 349.92595703 10.27476562 349.92595703 8.5625 350.5 C7.65628906 350.8196875 6.75007813 351.139375 5.81640625 351.46875 C-1.05725267 352.76530702 -7.84001335 350.31949039 -14.3359375 348.234375 C-15.21416168 347.95909973 -16.09238586 347.68382446 -16.9972229 347.40020752 C-19.79188939 346.52323708 -22.58357675 345.63723406 -25.375 344.75 C-43.22576766 339.10477756 -61.05834085 333.76239354 -79.3125 329.5625 C-80.57723145 329.26956055 -81.84196289 328.97662109 -83.14501953 328.67480469 C-96.71381526 325.55098493 -110.34086737 322.70065403 -124 320 C-125.78241089 319.63853882 -125.78241089 319.63853882 -127.60083008 319.26977539 C-139.31258372 316.96787459 -151.10056166 315.44147165 -162.9375 313.9375 C-164.93690035 313.67943427 -166.93624961 313.42097245 -168.93554688 313.16210938 C-173.75962557 312.53902684 -178.58554908 311.93178996 -183.41220093 311.32901001 C-185.72253091 311.03527712 -188.02989353 310.72566396 -190.3371582 310.40893555 C-202.9508102 308.72643164 -215.60460725 308.36554159 -228.3125 307.9375 C-231.64138333 307.82093941 -234.97017185 307.70233315 -238.2988739 307.58070374 C-240.35020057 307.50618623 -242.40164004 307.43468033 -244.45320129 307.3669281 C-251.34513034 307.12260115 -258.10749121 306.57437573 -265 306 C-265 292.8 -265 279.6 -265 266 C-249.25 267.125 -249.25 267.125 -242.625 268.0625 C-241.35914063 268.23910156 -240.09328125 268.41570312 -238.7890625 268.59765625 C-237.86867187 268.73042969 -236.94828125 268.86320312 -236 269 C-236 269.66 -236 270.32 -236 271 C-235.28054199 271.10376953 -234.56108398 271.20753906 -233.81982422 271.31445312 C-224.70177082 272.66989692 -215.65121051 274.31263499 -206.59570312 276.03173828 C-204.10881655 276.50306718 -201.62086923 276.96848624 -199.1328125 277.43359375 C-197.52857877 277.73662435 -195.9244097 278.03999749 -194.3203125 278.34375 C-193.22168381 278.54852966 -193.22168381 278.54852966 -192.1008606 278.75744629 C-187.65070589 279.60849337 -183.35338796 280.72934272 -179 282 C-177.4241024 282.34208055 -175.84347947 282.66354767 -174.2578125 282.95703125 C-156.23927715 286.45402727 -138.55068057 291.68382922 -121 297 C-119.71683255 297.38602356 -118.43362789 297.77192343 -117.15039062 298.15771484 C-102.000181 302.72214378 -87.03374404 307.42223238 -72.4453125 313.6015625 C-69.31085747 315.12536508 -69.31085747 315.12536508 -67 315 C-96.38915362 299.66192266 -125.69246771 285.63407516 -156.828125 274.17041016 C-158.83215982 273.43092871 -160.83270016 272.68184298 -162.828125 271.91943359 C-169.85394234 269.26820578 -176.96941723 267.32259681 -184.25 265.5 C-186.64727109 264.89115896 -189.04440774 264.2817883 -191.44140625 263.671875 C-192.57852051 263.38376953 -193.71563477 263.09566406 -194.88720703 262.79882812 C-198.66780211 261.82862365 -202.4265695 260.79358797 -206.1875 259.75 C-213.72394541 257.7169124 -221.31643001 256.35992389 -229 255 C-229 244.44 -229 233.88 -229 223 C-181.50701669 237.24789499 -135.27866591 258.77560771 -92.43945312 283.59667969 C-89.5758062 285.24402181 -86.68765924 286.84320447 -83.79467773 288.43823242 C-67.47391735 297.46519248 -51.83452542 307.6809525 -36.17407227 317.79516602 C-35.16658936 318.44412842 -34.15910645 319.09309082 -33.12109375 319.76171875 C-31.78195923 320.6273645 -31.78195923 320.6273645 -30.41577148 321.51049805 C-28.31767491 322.8041299 -26.22478672 323.94370321 -24 325 C-29.16601744 319.73870764 -34.3452313 314.56492732 -39.94921875 309.76953125 C-42.27566583 307.76213977 -44.54192686 305.69533362 -46.8125 303.625 C-52.06180977 298.89423907 -57.49623945 294.43002948 -63 290 C-64.13313697 289.07461592 -65.26593449 288.14881607 -66.3984375 287.22265625 C-87.77484716 269.82338767 -110.26821932 254.9609544 -134.89599609 242.56396484 C-137.15987289 241.42330142 -139.41673525 240.27224897 -141.67041016 239.11181641 C-150.57002385 234.55775811 -159.59033009 230.49883036 -168.85449219 226.74462891 C-171.00212055 225.87414049 -173.14581813 224.99450132 -175.2890625 224.11328125 C-183.16979285 220.88650961 -191.0873359 217.78905457 -199.08813477 214.87130737 C-203.89629462 213.10370538 -203.89629462 213.10370538 -205 212 C-205.08775605 209.85441173 -205.10695219 207.70595579 -205.09765625 205.55859375 C-205.09443359 204.25341797 -205.09121094 202.94824219 -205.08789062 201.60351562 C-205.07953401 200.2148431 -205.07106905 198.82617123 -205.0625 197.4375 C-205.05748666 196.04492344 -205.05292347 194.65234519 -205.04882812 193.25976562 C-205.03699434 189.8398013 -205.0205088 186.41992156 -205 183 C-201.47767311 183.58904713 -198.58964716 184.51031424 -195.38769531 186.08203125 C-194.50196838 186.51338379 -193.61624146 186.94473633 -192.70367432 187.38916016 C-191.2802774 188.09371338 -191.2802774 188.09371338 -189.828125 188.8125 C-188.83230408 189.30024902 -187.83648315 189.78799805 -186.81048584 190.29052734 C-184.69766158 191.32683442 -182.58622329 192.36597129 -180.47607422 193.40771484 C-177.30618297 194.97226992 -174.13206094 196.52793517 -170.95703125 198.08203125 C-139.48183175 213.52590408 -139.48183175 213.52590408 -125.5625 222.3125 C-124.6854541 222.86172119 -123.8084082 223.41094238 -122.90478516 223.97680664 C-99.32288868 238.8192293 -75.92725048 254.72679684 -55.4609375 273.72265625 C-53.26040554 275.75902154 -51.02271297 277.73261853 -48.75 279.6875 C-45.60273413 282.41896855 -42.67316962 285.30583406 -39.75390625 288.27734375 C-38.0411016 289.95963073 -36.26892555 291.51103759 -34.4375 293.0625 C-24.37106088 301.75266815 -14.91176514 311.4904605 -6.6875 321.9375 C-5.16126242 324.08980875 -5.16126242 324.08980875 -3 325 C-7.56374368 294.78740428 -16.58912729 269.95945934 -34.80078125 245.15625 C-37 242 -37 242 -37 240 C-37.66 240 -38.32 240 -39 240 C-40.19140625 238.6015625 -40.19140625 238.6015625 -41.5625 236.625 C-45.77685953 230.80171011 -50.5343038 225.26678207 -55.76953125 220.33203125 C-57 219 -57 219 -57 217 C-57.99 216.67 -58.98 216.34 -60 216 C-61.71405701 214.38211121 -63.37482846 212.70715349 -65 211 C-71.99211991 203.81183934 -79.05476767 197.14335916 -87 191 C-87.66547852 190.47986328 -88.33095703 189.95972656 -89.01660156 189.42382812 C-109.84089184 173.20977622 -132.08324922 159.05822403 -155 146 C-142.28240741 131.11111111 -142.28240741 131.11111111 -138 127 C-134.22976315 128.34842991 -131.32449997 130.04036684 -128.125 132.4375 C-126.68447266 133.50871094 -126.68447266 133.50871094 -125.21484375 134.6015625 C-124.69776855 134.98860352 -124.18069336 135.37564453 -123.64794922 135.77441406 C-121.92177398 137.05817698 -120.18347711 138.3238393 -118.44140625 139.5859375 C-106.12997817 148.51382544 -94.18842819 157.61523038 -83.1328125 168.078125 C-80.87576709 170.21052598 -78.5601607 172.25550484 -76.20703125 174.28125 C-71.46425616 178.41001518 -67.00538572 182.80265982 -62.5625 187.25 C-61.72283691 188.09046875 -60.88317383 188.9309375 -60.01806641 189.796875 C-54.26377661 195.60833775 -49.00146797 201.52812116 -44 208 C-42.56284339 209.68779246 -41.12532769 211.37527919 -39.6875 213.0625 C-33.5146037 220.614333 -28.25201558 228.79237482 -23 237 C-22.57654297 237.66080566 -22.15308594 238.32161133 -21.71679688 239.00244141 C-17.20835187 246.10415864 -13.26201234 253.33244628 -9.734375 260.96484375 C-9.3719873 261.74210815 -9.00959961 262.51937256 -8.63623047 263.32019043 C-7.75463319 265.21213311 -6.87690574 267.10587825 -6 269 C-5.87355627 248.79818178 -5.81007165 228.59709681 -5.82121754 208.39487457 C-5.82493047 199.01419106 -5.80816318 189.63438453 -5.74291992 180.25390625 C-5.68609502 172.07628292 -5.66796403 163.89963783 -5.6959936 155.72184896 C-5.70948874 151.39262869 -5.70381506 147.06537413 -5.65177345 142.73640442 C-5.6033524 138.65768582 -5.60684711 134.58223891 -5.64941406 130.50348663 C-5.65598377 129.01035436 -5.64391099 127.51700004 -5.61136436 126.02420807 C-5.34643594 117.54685835 -5.34643594 117.54685835 -9.40878868 110.40739441 C-12.18895146 108.386448 -15.02049168 106.70539757 -18 105 C-23.16273933 100.48930158 -26.26943003 95.02409915 -29.375 89 C-29.72135498 88.33548828 -30.06770996 87.67097656 -30.42456055 86.98632812 C-32.71320031 82.31839804 -33.68491836 78.17290656 -34 73 C-34.13535156 71.0509375 -34.13535156 71.0509375 -34.2734375 69.0625 C-35.16235629 43.91132712 -21.49421723 23.09812003 -4.98046875 5.09375 C-3.34641601 3.36623073 -1.69458389 1.66785544 0 0 Z " transform="translate(366,57)" style="fill: #19313D;"/><path d="M0 0 C37.95 0 75.9 0 115 0 C115 10.56 115 21.12 115 32 C105.76 32 96.52 32 87 32 C87.04039889 43.05780171 87.09758111 54.11517282 87.18390274 65.17271328 C87.22332772 70.3077817 87.25554064 75.44267991 87.27099609 80.57788086 C87.28619543 85.53829699 87.3206992 90.49824503 87.36830902 95.45845222 C87.38308904 97.34612002 87.39103907 99.23385466 87.39188385 101.12158012 C87.39426548 103.77613476 87.42144006 106.42940823 87.45410156 109.08374023 C87.4490712 109.85554626 87.44404083 110.62735229 87.43885803 111.42254639 C87.56635476 118.16713738 89.61027179 124.10233361 93.9296875 129.33984375 C99.58562484 133.98498104 104.20345927 136.55563447 111.7890625 136.30859375 C118.92622061 135.31241797 124.35982338 132.49684919 128.84375 126.87890625 C131.27211254 122.93281712 132.24945953 119.46102541 132.2784729 114.84306335 C132.28963638 113.82649155 132.30079987 112.80991974 132.31230164 111.76254272 C132.31554192 110.10637436 132.31554192 110.10637436 132.31884766 108.41674805 C132.32889328 107.24558945 132.3389389 106.07443085 132.34928894 104.86778259 C132.38016434 100.99909961 132.39716849 97.13048597 132.4140625 93.26171875 C132.43277064 90.57842497 132.45224738 87.89514782 132.4727478 85.21186829 C132.51949393 78.87261028 132.55625813 72.53333542 132.58942068 66.19399339 C132.62767157 58.97509624 132.67707393 51.75628882 132.72740483 44.53746736 C132.8306627 29.69170679 132.91847102 14.84589775 133 0 C145.21 0 157.42 0 170 0 C170.04527138 14.91726752 170.08206136 29.83449949 170.10362434 44.75181961 C170.1139057 51.67929812 170.12790542 58.60673068 170.15087891 65.53417969 C170.17305887 72.22557961 170.18458532 78.91692206 170.18975449 85.60836029 C170.19343605 88.15508523 170.20062507 90.70180771 170.21146011 93.24851227 C170.22608018 96.82881707 170.22797355 100.40892773 170.22705078 103.98925781 C170.23424133 105.03080017 170.24143188 106.07234253 170.24884033 107.14544678 C170.22110192 117.15931799 169.10078119 126.93870699 164.9375 136.125 C164.63440918 136.80240234 164.33131836 137.47980469 164.01904297 138.17773438 C161.04414738 144.47257143 157.0663198 149.23371606 152 154 C151.28972656 154.71671875 150.57945312 155.4334375 149.84765625 156.171875 C138.53653001 167.0534648 124.33302498 171.49994914 108.86132812 171.28344727 C93.31038269 170.78955938 79.17859486 165.80161685 67.8125 154.90234375 C59.50357018 145.97968616 55.09962003 136.73086965 52 125 C51.8217698 124.36015041 51.6435396 123.72030083 51.45990849 123.06106186 C50.67559483 119.54619093 50.87071615 115.96062989 50.88647461 112.37597656 C50.88632858 111.50732468 50.88618256 110.63867279 50.8860321 109.74369812 C50.88672809 106.87598157 50.89450585 104.00833019 50.90234375 101.140625 C50.90420904 99.1509403 50.90563242 97.16125515 50.90663147 95.17156982 C50.91044788 89.93714121 50.92027071 84.70274039 50.93133545 79.46832275 C50.94336783 73.18658523 50.94795598 66.90483841 50.95378876 60.62309265 C50.96348291 51.08204245 50.98264562 41.5410532 51 32 C34.17 32 17.34 32 0 32 C0 21.44 0 10.88 0 0 Z " transform="translate(214,438)" style="fill: #18303C;"/><path d="M0 0 C33.99 0 67.98 0 103 0 C103 10.56 103 21.12 103 32 C80.89 32 58.78 32 36 32 C36 43.88 36 55.76 36 68 C53.82 68 71.64 68 90 68 C90 78.56 90 89.12 90 100 C72.18 100 54.36 100 36 100 C36 112.21 36 124.42 36 137 C57.78 137 79.56 137 102 137 C102 147.23 102 157.46 102 168 C68.34 168 34.68 168 0 168 C0 112.56 0 57.12 0 0 Z " transform="translate(91,438)" style="fill: #18313D;"/><path d="M0 0 C1.19387329 -0.0141394 1.19387329 -0.0141394 2.41186523 -0.02856445 C16.39290422 0.04842205 29.16536278 6.20203925 39.12890625 15.87109375 C45.60352267 22.92483507 49.58743727 30.07855232 52.3125 39.25 C52.50585938 39.87132812 52.69921875 40.49265625 52.8984375 41.1328125 C55.3130978 53.47947174 53.05688594 67.6055059 46.3125 78.25 C42.69677099 83.42563206 38.69976694 88.03511156 34.15455627 92.40734863 C32.37250312 94.18997749 30.73617078 96.03360385 29.10131836 97.95117188 C25.31069589 102.3123914 21.29092561 106.39926462 17.19140625 110.46875 C16.5300769 111.12907227 15.86874756 111.78939453 15.18737793 112.46972656 C12.75267936 114.89925414 10.31359233 117.32438074 7.875 119.75 C-0.3234375 127.9175 -0.3234375 127.9175 -8.6875 136.25 C11.7725 136.58 32.2325 136.91 53.3125 137.25 C53.3125 147.48 53.3125 157.71 53.3125 168.25 C17.0125 168.25 -19.2875 168.25 -56.6875 168.25 C-56.6875 135.55908243 -56.6875 135.55908243 -44.57775879 123.03346252 C-43.64782104 122.1117778 -42.7178833 121.19009308 -41.75976562 120.24047852 C-41.23646164 119.72024109 -40.71315765 119.20000366 -40.17399597 118.66400146 C-39.05886524 117.55591899 -37.94259684 116.44898035 -36.82524109 115.34314156 C-35.04650842 113.58213547 -33.27162911 111.81732314 -31.49768066 110.05149841 C-26.4606566 105.03863703 -21.41789581 100.03157667 -16.37060547 95.02905273 C-13.26301859 91.9485023 -10.1605312 88.86288811 -7.06095886 85.77427483 C-5.89249912 84.6119474 -4.72215646 83.45150915 -3.54975891 82.29315376 C11.10884624 69.21963636 11.10884624 69.21963636 17.625 51.9375 C17.57157223 46.87521913 16.79131166 44.10489941 13.3125 40.25 C7.90235299 35.25601815 3.15611874 33.71535296 -4.12109375 33.8671875 C-9.59217973 34.68327034 -13.29766654 37.82359197 -17.0625 41.6875 C-21.17395932 48.17095508 -20.95643289 53.20826178 -21.6875 61.25 C-33.5675 61.25 -45.4475 61.25 -57.6875 61.25 C-57.6875 43.50677938 -53.54976063 28.38032727 -40.9375 15.36328125 C-28.79584517 3.95940059 -16.40736961 0.14718678 0 0 Z " transform="translate(591.6875,437.75)" style="fill: #172F3C;"/><path d="M0 0 C36.3 0 72.6 0 110 0 C110 44 110 44 98 62 C95.19093769 66.38607851 95.19093769 66.38607851 92.40234375 70.78515625 C90.64791708 73.55607525 88.83604136 76.28265879 87 79 C87.57878906 79.2475 88.15757812 79.495 88.75390625 79.75 C96.88368867 84.27440065 101.82796205 93.66583696 104.74609375 102.17578125 C108.47727327 116.25133433 105.49352378 130.48049091 98.7890625 143.11328125 C90.29990321 156.81085486 76.98262046 165.38732862 61.5 169.3125 C45.66286032 171.90958721 29.00193974 170.92006008 15.125 162.25 C13.72396423 161.20055496 12.349348 160.11512156 11 159 C10.19304687 158.35289062 9.38609375 157.70578125 8.5546875 157.0390625 C1.9708961 151.46196704 -3.1437243 145.11062046 -8 138 C-8.59941406 137.13890625 -9.19882812 136.2778125 -9.81640625 135.390625 C-11 133 -11 133 -10.8359375 130.96191406 C-10 129 -10 129 -8.17749023 127.96679688 C-7.00488647 127.59651367 -7.00488647 127.59651367 -5.80859375 127.21875 C-4.94556641 126.93386719 -4.08253906 126.64898438 -3.19335938 126.35546875 C-2.28392578 126.07316406 -1.37449219 125.79085937 -0.4375 125.5 C6.02435634 123.43258358 12.00157904 121.1916919 18 118 C18.680625 118.680625 19.36125 119.36125 20.0625 120.0625 C20.52398437 120.51753906 20.98546875 120.97257813 21.4609375 121.44140625 C22.51333294 122.50715696 23.53864106 123.60016098 24.5390625 124.71484375 C30.74656943 131.4371913 37.22401678 135.22122191 46.5 135.625 C53.71538209 135.3016692 59.50594927 133.4229049 64.7265625 128.30859375 C68.36146583 123.4451337 68.53019678 118.66398894 68.46875 112.734375 C67.94526439 109.68070892 66.95168403 108.34617336 65 106 C65 105.34 65 104.68 65 104 C64.2575 103.71125 63.515 103.4225 62.75 103.125 C60 102 60 102 58.3125 100.9375 C54.99394884 99.59214142 51.7684011 99.78853646 48.25 99.875 C47.55261719 99.88402344 46.85523438 99.89304687 46.13671875 99.90234375 C44.42433042 99.92580112 42.71211996 99.96166896 41 100 C47.99552264 83.77676517 55.88134293 68.02153129 63.84501648 52.25891113 C67.25121333 45.51632536 70.62154796 38.75690408 74 32 C49.58 32 25.16 32 0 32 C0 21.44 0 10.88 0 0 Z " transform="translate(413,438)" style="fill: #18303C;"/><path d="M0 0 C0 5.28 0 10.56 0 16 C-1.41587402 16.03963867 -2.83174805 16.07927734 -4.29052734 16.12011719 C-35.00733227 17.00592766 -65.47003116 18.47244664 -96 22 C-97.06259033 22.12137329 -98.12518066 22.24274658 -99.2199707 22.36779785 C-145.37936815 27.64853417 -190.93579765 34.5512567 -236 46 C-238.99595229 46.75095818 -241.99257311 47.49817721 -244.9921875 48.234375 C-247.02720869 48.75238039 -249.05353463 49.30560546 -251.0703125 49.890625 C-252.07835937 50.17421875 -253.08640625 50.4578125 -254.125 50.75 C-255.01445312 51.01296875 -255.90390625 51.2759375 -256.8203125 51.546875 C-265.13241564 52.73140076 -273.21870339 50.37523697 -281.1875 48.1875 C-282.19562744 47.91832764 -283.20375488 47.64915527 -284.24243164 47.37182617 C-288.58932186 46.2089262 -292.92920273 45.02159014 -297.265625 43.8203125 C-305.45212044 41.57338077 -313.59671905 39.85330817 -321.94873047 38.375 C-327.32300848 37.3925088 -332.67481565 36.29017444 -338.015625 35.140625 C-349.65568877 32.66798063 -361.37593087 30.74272432 -373.125 28.875 C-374.32122986 28.68290955 -374.32122986 28.68290955 -375.54162598 28.48693848 C-385.68177189 26.86399446 -395.81606937 25.49867194 -406.03027344 24.43408203 C-410.89103715 23.90256679 -415.71810193 23.20594857 -420.55566406 22.49780273 C-433.38272801 20.64393377 -446.20145144 19.36652757 -459.125 18.4375 C-460.44549347 18.34086563 -460.44549347 18.34086563 -461.79266357 18.24227905 C-483.83689615 16.65587237 -505.90651664 16.274538 -528 16 C-528 11.05 -528 6.1 -528 1 C-515.14595703 0.89463899 -502.34088202 1.16758728 -489.5 1.75 C-488.56621521 1.79157227 -487.63243042 1.83314453 -486.67034912 1.87597656 C-472.11722011 2.53995558 -457.6252098 3.5980388 -443.125 5 C-441.82236206 5.12538147 -441.82236206 5.12538147 -440.4934082 5.2532959 C-431.35107351 6.14417908 -422.25585924 7.18315618 -413.16845703 8.53564453 C-408.24786168 9.25678588 -403.311941 9.84091107 -398.375 10.4375 C-383.49386844 12.27305808 -368.68583812 14.37235249 -353.96875 17.25390625 C-350.72015953 17.8824435 -347.4607747 18.42335963 -344.1953125 18.95703125 C-328.83757304 21.49711234 -313.65067493 25.01661774 -298.49346924 28.54119873 C-297.0182513 28.88398613 -295.54263396 29.22505993 -294.06658936 29.56427002 C-287.12712808 31.16297333 -280.316967 32.81368204 -273.609375 35.24609375 C-263.85729695 38.5852145 -256.07229191 36.83246422 -246.4375 33.875 C-244.23290817 33.22788347 -242.0271387 32.58476777 -239.8203125 31.9453125 C-238.69657227 31.61950195 -237.57283203 31.29369141 -236.41503906 30.95800781 C-230.91427858 29.41490057 -225.37045858 28.06970181 -219.8125 26.75 C-218.83531006 26.51651855 -217.85812012 26.28303711 -216.85131836 26.04248047 C-213.9040914 25.34688021 -210.95286447 24.67123674 -208 24 C-206.53361084 23.65594116 -206.53361084 23.65594116 -205.03759766 23.30493164 C-193.0467297 20.5942155 -180.89024482 18.83375574 -168.75 16.9375 C-165.3802237 16.40915893 -162.01064025 15.87965968 -158.64141846 15.34779358 C-156.56034215 15.01946058 -154.47894104 14.69317687 -152.39715576 14.36936951 C-147.83973652 13.65203178 -143.31193725 12.87994437 -138.79370117 11.9453125 C-134.49970443 11.06691889 -130.23755491 10.47396699 -125.87890625 10.03515625 C-125.14485565 9.95726868 -124.41080505 9.8793811 -123.6545105 9.7991333 C-121.29094175 9.5492233 -118.92676713 9.30570586 -116.5625 9.0625 C-114.07466982 8.80213745 -111.58698765 8.54039351 -109.09931946 8.27848816 C-107.43636149 8.10347898 -105.77334673 7.92900853 -104.11027527 7.75508118 C-99.16091025 7.23565178 -94.21629491 6.68750228 -89.2734375 6.109375 C-78.56564283 4.85763979 -67.9327206 3.76639383 -57.15795898 3.34301758 C-51.24550016 3.1015065 -45.38529232 2.61193821 -39.5 2 C-38.23289185 1.86863647 -38.23289185 1.86863647 -36.94018555 1.73461914 C-33.52991303 1.37740399 -30.12044504 1.01287417 -26.7109375 0.6484375 C-17.81454295 -0.20934159 -8.92767536 -0.08927675 0 0 Z " transform="translate(629,376)" style="fill: #D2D1C5;"/><path d="M0 0 C3.80471315 0.61438309 6.89283753 1.73477447 10.359375 3.40625 C11.38426025 3.89834961 12.40914551 4.39044922 13.46508789 4.89746094 C15.09111938 5.69071777 15.09111938 5.69071777 16.75 6.5 C17.86947021 7.04172852 18.98894043 7.58345703 20.14233398 8.14160156 C27.20137157 11.57761813 34.19159684 15.11831059 41.09863281 18.85009766 C45.02332091 20.9696593 48.98045648 22.9761664 53.00024414 24.90893555 C61.79965521 29.15985358 69.86601496 34.24146234 77.98339844 39.66699219 C79.88223338 40.92215427 81.79718113 42.14402344 83.7265625 43.3515625 C89.96791087 47.25957649 95.96010493 51.3622126 101.75488281 55.92041016 C105.77908055 59.08365595 109.88093305 62.12221267 114.02050781 65.1328125 C122.66658546 71.42582215 130.99665358 77.90829304 139 85 C139.92167969 85.81082031 140.84335937 86.62164062 141.79296875 87.45703125 C144.91070119 90.25653997 147.96457373 93.1118848 151 96 C151.71494629 96.67562988 152.42989258 97.35125977 153.16650391 98.04736328 C164.53434155 108.85848591 174.30466187 119.93357627 183 133 C179.25178375 126.07667908 179.25178375 126.07667908 174.9375 119.5 C174.34453125 118.67113281 173.7515625 117.84226562 173.140625 116.98828125 C172.43421875 116.00214844 171.7278125 115.01601563 171 114 C170.07668442 112.6819976 169.15492579 111.36290369 168.234375 110.04296875 C156.96920175 93.45428105 156.96920175 93.45428105 143.62109375 78.58984375 C141.89981704 76.90174828 140.40656451 75.11109429 138.875 73.25 C125.75165345 58.08069741 106.18265855 43.90418625 88.80078125 34.2265625 C87.90939453 33.61941406 87.90939453 33.61941406 87 33 C87 32.34 87 31.68 87 31 C86.31421875 30.76023437 85.6284375 30.52046875 84.921875 30.2734375 C81.43368486 28.75318351 78.39529642 26.73804467 75.25 24.625 C70.00144789 21.16443898 64.86552701 18.32598485 59 16 C59 15.34 59 14.68 59 14 C59.94875 13.38125 60.8975 12.7625 61.875 12.125 C64.82241872 10.12075527 65.83853833 9.25209269 67 6 C70.90468633 7.43743947 74.31635146 9.28844601 77.875 11.4375 C82.17119751 13.98339482 86.34588796 16.20182035 91 18 C91 18.66 91 19.32 91 20 C91.54011719 20.08636719 92.08023438 20.17273438 92.63671875 20.26171875 C95.7935528 21.24790327 98.09570752 22.93271676 100.8125 24.8125 C105.58000174 28.08197751 105.58000174 28.08197751 110.5625 31 C115.05929228 33.61631551 119.16912827 36.65558178 123.33691406 39.76367188 C125.14289292 41.10622574 126.95803091 42.4358511 128.7734375 43.765625 C136.80023647 49.67887016 144.51105111 55.83820805 152.01171875 62.40625 C153.86517759 64.01500382 155.75590049 65.58306072 157.69921875 67.08203125 C160.59373119 69.494944 162.45291823 72.20844035 164.5703125 75.29296875 C165.98634218 77.2866986 165.98634218 77.2866986 169 78 C170.54868969 80.33203854 171.91679547 82.61087549 173.25 85.0625 C173.6433252 85.77623779 174.03665039 86.48997559 174.44189453 87.2253418 C181.84353548 100.89186824 186.86892846 114.45645713 189.6875 129.75 C189.81930664 130.45954834 189.95111328 131.16909668 190.08691406 131.90014648 C190.85759188 136.33362122 191.12367803 140.50047549 191 145 C187.32329416 143.48947977 185.28125538 141.3511385 182.6875 138.375 C181.49447266 137.01955078 181.49447266 137.01955078 180.27734375 135.63671875 C178.95187972 134.10209059 177.62979068 132.56451015 176.31640625 131.01953125 C168.81196106 122.24251181 160.55198765 114.00069847 151.74609375 106.53125 C149.966369 104.97050705 148.3316798 103.32720968 146.6875 101.625 C142.94420659 97.81333593 138.83145847 94.5203112 134.671875 91.17578125 C132.4894882 89.39860369 130.39353661 87.57977001 128.3125 85.6875 C122.57759213 80.62728718 116.36397829 76.15980028 110.21044922 71.62792969 C108.74396684 70.54790931 107.27942447 69.46524947 105.81689453 68.37988281 C94.54227994 60.02142049 82.99377554 52.28724155 71 45 C70.13262207 44.46826172 69.26524414 43.93652344 68.37158203 43.38867188 C45.1471176 29.21894641 20.62773617 17.49818335 -4 6 C-3.34 5.67 -2.68 5.34 -2 5 C-1.27840576 3.35636866 -0.60648579 1.68949614 0 0 Z " transform="translate(172,237)" style="fill: #D5D3CA;"/><path d="M0 0 C1.67449219 -0.01160156 1.67449219 -0.01160156 3.3828125 -0.0234375 C10.54691077 -0.00673797 17.25441361 0.70442253 24.25 2.25 C22.04409261 22.54434798 10.56417955 43.82461896 -4.75 57.25 C-8.59223742 59.96019244 -12.53013602 62.18560611 -16.75 64.25 C-17.73806641 64.75273437 -17.73806641 64.75273437 -18.74609375 65.265625 C-26.46043017 68.90009297 -34.41427951 69.54439778 -42.8125 69.375 C-43.67810547 69.36597656 -44.54371094 69.35695313 -45.43554688 69.34765625 C-47.54048779 69.32439723 -49.64528342 69.28854008 -51.75 69.25 C-51.75 65.95 -51.75 62.65 -51.75 59.25 C-50.55503906 58.88648438 -49.36007812 58.52296875 -48.12890625 58.1484375 C-34.12120475 53.77121482 -22.79528391 48.77055477 -15.140625 35.44921875 C-13.94394907 33.07267413 -12.809663 30.69028163 -11.75 28.25 C-14.72 27.92 -17.69 27.59 -20.75 27.25 C-20.915 28.054375 -21.08 28.85875 -21.25 29.6875 C-24.83271826 38.19645587 -30.90421624 42.7730622 -38.9375 46.8125 C-39.62666504 47.15909668 -40.31583008 47.50569336 -41.02587891 47.86279297 C-44.71764063 49.60813566 -47.64961195 50.68790552 -51.75 50.25 C-52.56312493 38.03505655 -50.98064548 28.84413851 -42.86962891 19.44775391 C-30.48423931 5.84620604 -18.35772163 -0.1254514 0 0 Z " transform="translate(433.75,158.75)" style="fill: #17303D;"/><path d="M0 0 C1.54829062 1.19439562 3.06993391 2.42415872 4.5625 3.6875 C5.35269531 4.34363281 6.14289063 4.99976563 6.95703125 5.67578125 C14.56164182 12.57415933 19.33804488 21.43784761 20.5625 31.6875 C20.6245775 33.31144748 20.64962041 34.93755297 20.625 36.5625 C20.61597656 37.34367187 20.60695313 38.12484375 20.59765625 38.9296875 C20.58605469 39.50976562 20.57445312 40.08984375 20.5625 40.6875 C11.09601598 40.64721709 4.69623481 37.37191581 -2.3125 31.125 C-8.15409919 24.42434211 -8.15409919 24.42434211 -9.6875 20.4375 C-11.10190232 17.55760553 -11.10190232 17.55760553 -13.40234375 17.0859375 C-15.88296607 16.74710311 -15.88296607 16.74710311 -19.4375 16.6875 C-15.70897446 29.0773209 -9.77268928 37.24010865 1.5625 43.6875 C7.41642239 46.47051228 13.40624907 48.6748795 19.5625 50.6875 C19.5625 53.6575 19.5625 56.6275 19.5625 59.6875 C0.14860148 60.47990402 -16.51773815 57.0367606 -31.4375 43.6875 C-43.25874394 32.44946734 -49.00008807 17.67690846 -54.65136719 2.73779297 C-55.28933978 1.07391291 -55.97037469 -0.5734105 -56.6640625 -2.21484375 C-57.4375 -4.3125 -57.4375 -4.3125 -57.4375 -7.3125 C-38.94842454 -14.12571057 -16.21303921 -10.51391028 0 0 Z " transform="translate(331.4375,168.3125)" style="fill: #172F3C;"/><path d="M0 0 C1.65 0 3.3 0 5 0 C5 0.66 5 1.32 5 2 C5.71945801 2.10376953 6.43891602 2.20753906 7.18017578 2.31445312 C16.29822918 3.66989692 25.34878949 5.31263499 34.40429688 7.03173828 C36.89118345 7.50306718 39.37913077 7.96848624 41.8671875 8.43359375 C43.47142123 8.73662435 45.0755903 9.03999749 46.6796875 9.34375 C47.77831619 9.54852966 47.77831619 9.54852966 48.8991394 9.75744629 C53.34929411 10.60849337 57.64661204 11.72934272 62 13 C63.5758976 13.34208055 65.15652053 13.66354767 66.7421875 13.95703125 C84.76072285 17.45402727 102.44931943 22.68382922 120 28 C121.28316745 28.38602356 122.56637211 28.77192343 123.84960938 29.15771484 C139.54212267 33.88568102 154.9863562 38.84051376 170.10205078 45.22167969 C172.61704687 46.2530416 175.17520669 47.13039286 177.75 48 C185.14342119 50.60248426 192.05070201 54.40764019 199 58 C195.61781037 59.12739654 195.28762597 58.96648391 192.2109375 57.59375 C191.44740967 57.26544189 190.68388184 56.93713379 189.8972168 56.59887695 C189.06488525 56.23624756 188.23255371 55.87361816 187.375 55.5 C148.27170944 39.20785921 103.39113001 33.31207893 61.52001953 28.42089844 C59.10249286 28.13182811 56.68682252 27.82692827 54.27294922 27.50878906 C43.53810152 26.09825345 32.79503904 25.18699797 22 24.375 C20.24216072 24.23993145 18.48434801 24.10451657 16.7265625 23.96875 C12.48470357 23.64122417 8.24239834 23.32074584 4 23 C4 15.74 4 8.48 4 1 C2.68 0.67 1.36 0.34 0 0 Z " transform="translate(125,326)" style="fill: #849590;"/><path d="M0 0 C9.24 0 18.48 0 28 0 C28 24.42 28 48.84 28 74 C10.28915663 72.81927711 10.28915663 72.81927711 4 70 C3.67 69.01 3.34 68.02 3 67 C2.34 67 1.68 67 1 67 C-0.10135545 63.69593365 -0.12036063 61.26356307 -0.11352539 57.78442383 C-0.11341209 55.86277153 -0.11341209 55.86277153 -0.11329651 53.90229797 C-0.10818987 52.50387534 -0.10297387 51.1054531 -0.09765625 49.70703125 C-0.09579089 48.27642364 -0.09436754 46.84581539 -0.09336853 45.41520691 C-0.08955267 41.65213249 -0.07973032 37.88909675 -0.06866455 34.1260376 C-0.05663068 29.60976206 -0.05204376 25.09347357 -0.04621124 20.57718658 C-0.03651807 13.7180975 -0.01735503 6.85909326 0 0 Z " transform="translate(319,484)" style="fill: #EFEDE3;"/><path d="M0 0 C0 6.93 0 13.86 0 21 C-2.76503906 21.14695312 -2.76503906 21.14695312 -5.5859375 21.296875 C-35.68599558 23.00356911 -65.32712014 26.63318723 -95 32 C-96.10214844 32.19706543 -97.20429688 32.39413086 -98.33984375 32.59716797 C-121.05120293 36.69025656 -143.58561378 41.67731795 -165.75 48.125 C-166.83788818 48.43735596 -167.92577637 48.74971191 -169.04663086 49.0715332 C-175.08964136 50.88193437 -180.52613181 53.07687028 -186.04785156 56.14013672 C-186.69206055 56.4238916 -187.33626953 56.70764648 -188 57 C-188.66 56.67 -189.32 56.34 -190 56 C-180.83162412 50.58225298 -172.13243633 45.54662896 -161.79296875 42.78515625 C-159.26537928 42.07460313 -157.10410618 41.205923 -154.75 40.0625 C-150.08536891 37.88567216 -145.22810489 36.5416452 -140.29199219 35.14135742 C-128.90519738 31.87729022 -117.70040596 27.98675722 -106.4987793 24.14135742 C-102.29837182 22.71101022 -98.15961996 21.48705259 -93.8125 20.5625 C-89.38550455 19.5753309 -85.0384075 18.46842411 -80.6875 17.1875 C-21.21744297 0 -21.21744297 0 0 0 Z " transform="translate(604,328)" style="fill: #81938F;"/><path d="M0 0 C0.08078641 2.12438339 0.13909141 4.2496323 0.1875 6.375 C0.22230469 7.55835938 0.25710938 8.74171875 0.29296875 9.9609375 C0.19628906 10.96382813 0.09960938 11.96671875 0 13 C-3.15133531 15.10089021 -5.53015679 15.80707622 -9.171875 16.77734375 C-17.32167518 19.04268713 -25.27867831 21.73892968 -33.25 24.5625 C-33.98445343 24.82156128 -34.71890686 25.08062256 -35.47561646 25.34753418 C-48.59801521 29.9902423 -61.41100526 35.17702227 -74.16210938 40.765625 C-77.68862012 42.29952369 -81.23639538 43.7785117 -84.78808594 45.25292969 C-98.36608345 50.89523146 -111.60575359 57.15984889 -124.70507812 63.83398438 C-126.30041656 64.64455207 -127.89826697 65.45018697 -129.49804688 66.25195312 C-141.64408942 72.3474172 -153.44361501 78.89815102 -165.0625 85.9375 C-165.66727173 86.30221405 -166.27204346 86.6669281 -166.8951416 87.04269409 C-172.90584555 90.67734737 -178.7892831 94.25369637 -184 99 C-184.66 98.67 -185.32 98.34 -186 98 C-177.94782394 90.96437773 -169.70403306 84.48464936 -160.93798828 78.3671875 C-158.10792989 76.37067365 -155.31618896 74.32269455 -152.51953125 72.27978516 C-142.86243961 65.23850211 -133.04623636 58.47455743 -123 52 C-122.40251953 51.61424805 -121.80503906 51.22849609 -121.18945312 50.83105469 C-109.37787844 43.28815333 -96.81331896 37.06097612 -84.33789062 30.70703125 C-81.20063436 29.10260645 -78.07561862 27.47667082 -74.953125 25.84375 C-73.15658426 24.91601908 -71.35972994 23.98889507 -69.5625 23.0625 C-68.74692627 22.63138916 -67.93135254 22.20027832 -67.09106445 21.75610352 C-66.34042725 21.37381592 -65.58979004 20.99152832 -64.81640625 20.59765625 C-64.17131104 20.26258057 -63.52621582 19.92750488 -62.86157227 19.58227539 C-60.54869667 18.85883824 -59.29015501 19.33138882 -57 20 C-54.65260411 19.30340183 -54.65260411 19.30340183 -52.125 18.0625 C-46.26564452 15.48695913 -40.33314993 13.2339667 -34.3125 11.0625 C-33.36721436 10.72154297 -32.42192871 10.38058594 -31.44799805 10.02929688 C-29.54883065 9.34628999 -27.64917605 8.66463618 -25.74902344 7.984375 C-23.15672878 7.05612171 -20.56654883 6.12216972 -17.9765625 5.1875 C-16.46372063 4.64533369 -14.95071001 4.10363797 -13.4375 3.5625 C-12.41233276 3.19233765 -12.41233276 3.19233765 -11.36645508 2.81469727 C-3.43339767 0 -3.43339767 0 0 0 Z " transform="translate(576,286)" style="fill: #AEB4AC;"/><path d="M0 0 C3.90468633 1.43743947 7.31635146 3.28844601 10.875 5.4375 C15.17119751 7.98339482 19.34588796 10.20182035 24 12 C24 12.66 24 13.32 24 14 C24.54011719 14.08636719 25.08023438 14.17273438 25.63671875 14.26171875 C28.7935528 15.24790327 31.09570752 16.93271676 33.8125 18.8125 C38.58000174 22.08197751 38.58000174 22.08197751 43.5625 25 C48.05929228 27.61631551 52.16912827 30.65558178 56.33691406 33.76367188 C58.14289292 35.10622574 59.95803091 36.4358511 61.7734375 37.765625 C69.80023647 43.67887016 77.51105111 49.83820805 85.01171875 56.40625 C86.86517759 58.01500382 88.75590049 59.58306072 90.69921875 61.08203125 C93.59373119 63.494944 95.45291823 66.20844035 97.5703125 69.29296875 C98.98634218 71.2866986 98.98634218 71.2866986 102 72 C103.11914062 73.48706055 103.11914062 73.48706055 104.15625 75.38671875 C104.53910156 76.07830078 104.92195313 76.76988281 105.31640625 77.48242188 C105.70699219 78.21009766 106.09757812 78.93777344 106.5 79.6875 C106.89058594 80.39583984 107.28117187 81.10417969 107.68359375 81.83398438 C108.80612154 83.88061333 109.90345313 85.93937158 111 88 C111.6084375 89.09957031 112.216875 90.19914062 112.84375 91.33203125 C114 94 114 94 113 97 C112.47792969 96.38253906 111.95585937 95.76507813 111.41796875 95.12890625 C104.87229113 87.59736475 97.74546045 80.95243463 89.3125 75.5625 C88.549375 75.046875 87.78625 74.53125 87 74 C87 73.34 87 72.68 87 72 C86.34 72 85.68 72 85 72 C85 71.34 85 70.68 85 70 C84.43152344 69.89429688 83.86304688 69.78859375 83.27734375 69.6796875 C80.63141196 68.88999259 78.82508819 67.70136127 76.5625 66.125 C75.38300781 65.31869141 75.38300781 65.31869141 74.1796875 64.49609375 C73.46039063 64.00238281 72.74109375 63.50867188 72 63 C68.81395347 60.83004618 68.81395347 60.83004618 65.22265625 59.7265625 C61.9580024 58.65938216 59.76437337 56.43880865 57.25 54.1875 C39.75811902 38.90668674 39.75811902 38.90668674 20 27 C20 26.34 20 25.68 20 25 C19.31421875 24.76023437 18.6284375 24.52046875 17.921875 24.2734375 C14.43368486 22.75318351 11.39529642 20.73804467 8.25 18.625 C3.00144789 15.16443898 -2.13447299 12.32598485 -8 10 C-8 9.34 -8 8.68 -8 8 C-7.05125 7.38125 -6.1025 6.7625 -5.125 6.125 C-2.17758128 4.12075527 -1.16146167 3.25209269 0 0 Z " transform="translate(239,243)" style="fill: #DAD9D0;"/><path d="M0 0 C0.95755692 -0.00990463 1.91511383 -0.01980927 2.90168762 -0.03001404 C4.4750589 -0.02326157 4.4750589 -0.02326157 6.08021545 -0.01637268 C7.73909538 -0.02666756 7.73909538 -0.02666756 9.43148804 -0.03717041 C13.09716024 -0.05551258 16.76240748 -0.05159018 20.42811584 -0.0459137 C22.97015524 -0.05047196 25.51219339 -0.05577646 28.05422974 -0.0617981 C33.38651611 -0.07074384 38.7186468 -0.0685223 44.05091858 -0.05836487 C50.21370171 -0.04688478 56.37604962 -0.06095546 62.53877538 -0.08776134 C68.46815396 -0.11258623 74.3973972 -0.115097 80.32682991 -0.10864449 C82.84946479 -0.10849082 85.37210787 -0.11457207 87.89471245 -0.12693596 C91.41911787 -0.14177477 94.94255943 -0.13122006 98.4669342 -0.11402893 C100.03726913 -0.12853088 100.03726913 -0.12853088 101.639328 -0.14332581 C108.66982465 -0.0713344 108.66982465 -0.0713344 112.01773071 2.22763062 C113.33827209 4.38768005 113.33827209 4.38768005 113.33827209 7.45018005 C112.17996504 10.85270704 111.36316886 11.57185358 108.33827209 13.38768005 C106.09249115 13.7707901 106.09249115 13.7707901 103.59425354 13.78208923 C102.64373611 13.79343903 101.69321869 13.80478882 100.71389771 13.81648254 C99.67792953 13.81355194 98.64196136 13.81062134 97.57460022 13.80760193 C95.93013161 13.82030624 95.93013161 13.82030624 94.25244141 13.83326721 C90.624684 13.85668713 86.99734941 13.85765824 83.36952209 13.85643005 C80.85133188 13.86352793 78.33314329 13.87122638 75.81495667 13.87950134 C70.53574792 13.89295716 65.25664838 13.89469044 59.97743225 13.88865662 C53.87646634 13.88201197 47.77610442 13.90489804 41.67526102 13.94197035 C35.8029886 13.97635777 29.9309542 13.98300514 24.05859375 13.97888184 C21.5610677 13.98057826 19.06353407 13.99027056 16.56607056 14.00802612 C13.07753718 14.0301 9.59047127 14.02057169 6.10194397 14.00291443 C4.54799171 14.0228093 4.54799171 14.0228093 2.96264648 14.04310608 C-4.01563508 13.96081598 -4.01563508 13.96081598 -7.33836365 11.01329041 C-8.66172791 8.38768005 -8.66172791 8.38768005 -8.59922791 5.76268005 C-6.8170183 1.24774904 -4.79202179 0.01398332 0 0 Z " transform="translate(96.66172790527344,628.6123199462891)" style="fill: #213540;"/><path d="M0 0 C0.95755692 -0.00845947 1.91511383 -0.01691895 2.90168762 -0.02563477 C3.95060181 -0.01956207 4.99951599 -0.01348938 6.08021545 -0.00723267 C7.18613541 -0.01248962 8.29205536 -0.01774658 9.43148804 -0.02316284 C13.09717317 -0.0363959 16.76242608 -0.02761215 20.42811584 -0.01748657 C22.97015466 -0.01950649 25.51219291 -0.02241724 28.05422974 -0.02618408 C33.38652081 -0.03061206 38.71865624 -0.02444678 44.05091858 -0.01016235 C50.21363922 0.00615624 56.37606199 0.00088228 62.53877538 -0.01564157 C68.4681521 -0.03090295 74.39743636 -0.02927832 80.32682991 -0.02049637 C82.84945785 -0.0184924 85.37209336 -0.02096048 87.89471245 -0.02793503 C91.41899219 -0.03553926 94.94269733 -0.02395852 98.4669342 -0.00723267 C99.51382416 -0.01330536 100.56071411 -0.01937805 101.639328 -0.02563477 C102.59970474 -0.01717529 103.56008148 -0.00871582 104.54956055 0 C105.38265212 0.00113108 106.21574369 0.00226215 107.07408047 0.00342751 C109.90045894 0.474688 111.28091508 1.40932472 113.33827209 3.38095093 C113.92097278 6.80431743 113.83984037 8.5877518 111.97302246 11.54000854 C107.80415069 14.45286619 103.6500474 13.93776996 98.68226624 13.89852905 C97.59731369 13.90553833 96.51236115 13.91254761 95.39453125 13.91976929 C91.80390414 13.93739106 88.21406364 13.92571017 84.62342834 13.91220093 C82.1300542 13.91489482 79.63668109 13.91877637 77.14331055 13.92379761 C71.91532859 13.9296985 66.68755151 13.92149215 61.45960999 13.9024353 C56.08869446 13.88308297 50.71822077 13.88306553 45.3473053 13.9024353 C38.865201 13.92561171 32.38342059 13.92926136 25.90128899 13.91621399 C23.42972678 13.91354439 20.95815081 13.91682461 18.48660469 13.9261322 C15.03192194 13.93628564 11.57827784 13.92081136 8.12367249 13.89852905 C6.58913925 13.91067444 6.58913925 13.91067444 5.02360535 13.92306519 C0.64029572 13.87066263 -1.96421273 13.78952606 -5.80456543 11.54000854 C-7.66172791 9.38095093 -7.66172791 9.38095093 -8.16172791 6.31845093 C-7.29315276 1.21557197 -4.97884526 0.00676277 0 0 Z " transform="translate(532.6617279052734,628.6190490722656)" style="fill: #1F353F;"/><path d="M0 0 C1.43846439 0.53216368 2.87726491 1.06341972 4.31640625 1.59375 C8.46780074 3.12780461 12.61026409 4.68479406 16.75 6.25 C17.97662354 6.712854 19.20324707 7.17570801 20.46704102 7.65258789 C25.78846618 9.67783005 31.04806127 11.72826788 36.1875 14.1875 C40.60850122 16.27077755 45.05394037 18.23876587 49.5625 20.125 C56.82021001 23.20648581 63.83947558 26.70291071 70.85839844 30.29003906 C72.74486072 31.24739189 74.64137064 32.18233066 76.5390625 33.1171875 C81.68566178 35.68768228 86.71314677 38.47225604 91.75 41.25 C92.7488623 41.79881836 93.74772461 42.34763672 94.77685547 42.91308594 C117.24361541 55.28628969 117.24361541 55.28628969 125.7265625 61.18359375 C129.91487628 64.04614929 134.20623669 66.73657114 138.5 69.4375 C139.29325684 69.93717285 140.08651367 70.4368457 140.90380859 70.95166016 C145.43712447 73.80473949 145.43712447 73.80473949 149.98876953 76.62841797 C150.69114746 77.0617041 151.39352539 77.49499023 152.1171875 77.94140625 C152.73706543 78.32111572 153.35694336 78.7008252 153.99560547 79.09204102 C157.16802069 81.18594101 159.93363834 83.70840533 162.75 86.25 C163.56984375 86.96671875 164.3896875 87.6834375 165.234375 88.421875 C169.80628951 92.45273453 174.03110601 96.41543781 177.75 101.25 C173.53771954 99.77296659 170.08008274 97.58448228 166.4375 95.0625 C155.74473344 87.80548209 144.7483843 81.03109536 133.75 74.25 C132.87649902 73.71052734 132.00299805 73.17105469 131.10302734 72.61523438 C117.59636913 64.30263221 103.75927974 56.67902669 89.75 49.25 C88.77063477 48.72873535 87.79126953 48.2074707 86.78222656 47.67041016 C80.13441723 44.13827688 73.45833544 40.66577364 66.75 37.25 C65.96318848 36.8478125 65.17637695 36.445625 64.36572266 36.03125 C36.85256209 22.1011315 7.61227598 11.04237538 -21.25 0.25 C-23.89 -0.74 -26.53 -1.73 -29.25 -2.75 C-29.25 7.48 -29.25 17.71 -29.25 28.25 C-29.58 28.25 -29.91 28.25 -30.25 28.25 C-30.37361526 23.74774209 -30.46434063 19.24647151 -30.5246582 14.74291992 C-30.54980078 13.21116939 -30.58392047 11.67953883 -30.62719727 10.14819336 C-30.68786942 7.94615116 -30.71620891 5.74569426 -30.73828125 3.54296875 C-30.76408768 2.85849167 -30.7898941 2.17401459 -30.81648254 1.46879578 C-30.81762695 -0.47192383 -30.81762695 -0.47192383 -30.25 -3.75 C-21.896392 -10.86386249 -8.8965992 -3.34640899 0 0 Z " transform="translate(166.25,282.75)" style="fill: #D4D3CA;"/><path d="M0 0 C0 1.32 0 2.64 0 4 C0.99 4.495 0.99 4.495 2 5 C0.58243408 5.67820801 0.58243408 5.67820801 -0.86376953 6.37011719 C-19.16619841 15.13843838 -37.34017256 23.98248391 -55 34 C-56.19910298 34.67338327 -57.39831144 35.34657878 -58.59765625 36.01953125 C-61.40082609 37.60654635 -64.19071438 39.21417818 -66.97558594 40.83300781 C-69.35283632 42.20339576 -71.7431266 43.54985434 -74.1328125 44.8984375 C-96.453409 57.59248041 -118.15931477 71.60891233 -138.25634766 87.62109375 C-139.97167621 88.97760112 -141.70507619 90.30580849 -143.44921875 91.625 C-149.47436556 96.18307026 -155.31729024 100.90214656 -161.04907227 105.8203125 C-165.00949251 109.20457412 -169.06944592 112.43517062 -173.1875 115.625 C-179.04224334 120.16471785 -184.58059426 124.94272045 -190 130 C-190.33 129.34 -190.66 128.68 -191 128 C-189.75717988 125.54961707 -188.47117661 123.226675 -187.0625 120.875 C-186.67642578 120.21628906 -186.29035156 119.55757813 -185.89257812 118.87890625 C-184.93553422 117.248387 -183.96867185 115.62363816 -183 114 C-182.67 115.32 -182.34 116.64 -182 118 C-180.64508116 116.50067938 -179.29111322 115.00049946 -177.9375 113.5 C-177.10476563 112.58089844 -176.27203125 111.66179687 -175.4140625 110.71484375 C-174.02342895 109.15094356 -172.65154328 107.56892795 -171.3359375 105.94140625 C-166.77701007 100.31872908 -161.32897631 96.16277541 -155.61328125 91.79296875 C-152.31841585 89.27059627 -149.15740336 86.62995775 -146 83.9375 C-140.18717669 79.06148573 -134.11896724 74.67311668 -127.90234375 70.3359375 C-125.92418323 68.94675701 -123.96107485 67.53818303 -122 66.125 C-98.00837541 48.89329036 -72.48040199 34.32454972 -46.25 20.8125 C-45.53188141 20.44237793 -44.81376282 20.07225586 -44.07388306 19.69091797 C-34.6654883 14.84763816 -25.22855343 10.07780181 -15.6875 5.5 C-14.75260742 5.04987549 -13.81771484 4.59975098 -12.85449219 4.13598633 C-4.13418748 0 -4.13418748 0 0 0 Z " transform="translate(565,251)" style="fill: #D7D7CD;"/><path d="M0 0 C3.3125 1.5625 3.3125 1.5625 6 4 C6.55816406 4.46277344 7.11632812 4.92554688 7.69140625 5.40234375 C10.50402448 8.07139446 11.84086944 10.03616044 12.48046875 13.91015625 C12.66280088 20.91691937 11.76896837 25.7695369 7.125 31.1875 C2.07012024 35.49901509 -1.54803616 36.66410496 -8.20703125 36.484375 C-13.79470476 35.51532393 -17.38998876 32.16403358 -20.69140625 27.7265625 C-23.21105478 22.47666796 -22.60068575 16.67981752 -22 11 C-17.44935109 1.22453196 -10.02060627 -0.99495381 0 0 Z " transform="translate(442,639)" style="fill: #192F3A;"/><path d="M0 0 C4.89740887 2.48705104 8.66741408 6.42382343 10.99609375 11.38671875 C11.87153491 16.44562056 11.49687229 20.82546799 9.93359375 25.69921875 C6.78474959 30.06697033 3.15539191 33.6669527 -2.00390625 35.38671875 C-6.9725094 35.90837932 -10.85909604 35.95912385 -15.37890625 33.69921875 C-19.84109044 29.76824697 -22.74707373 26.54028523 -23.2421875 20.4609375 C-23.49080448 9.11615202 -23.49080448 9.11615202 -19.00390625 4.38671875 C-13.20701599 -0.72006552 -7.62891627 -2.33477554 0 0 Z " transform="translate(395.00390625,639.61328125)" style="fill: #172C3B;"/><path d="M0 0 C11.88 0 23.76 0 36 0 C36 8.91 36 17.82 36 27 C24.12 27 12.24 27 0 27 C0 18.09 0 9.18 0 0 Z " transform="translate(206,560)" style="fill: #132C37;"/><path d="M0 0 C0 0.99 0 1.98 0 3 C-2.06228466 3.48009262 -4.12483701 3.95903544 -6.1875 4.4375 C-7.33605469 4.70433594 -8.48460937 4.97117187 -9.66796875 5.24609375 C-14.95541542 6.4424328 -19.5496721 7.10686917 -25 7 C-25.33 7.99 -25.66 8.98 -26 10 C-26.99515625 10.1858667 -27.9903125 10.3717334 -29.015625 10.56323242 C-73.46565976 18.33901063 -73.46565976 18.33901063 -116.89111328 30.31713867 C-119.44901169 31.1453908 -122.0463199 31.76506712 -124.65966797 32.39208984 C-130.1843369 33.82714364 -135.61566436 35.61025474 -141.0625 37.3125 C-141.70895477 37.51386566 -142.35540955 37.71523132 -143.02145386 37.92269897 C-151.34856362 40.51655397 -159.65989272 43.14595597 -167.91796875 45.953125 C-170.01941187 46.66692317 -172.12652718 47.3641849 -174.23828125 48.046875 C-179.74704171 49.83053343 -184.97819642 51.76747642 -190.16015625 54.36328125 C-192 55 -192 55 -195 54 C-194.04222656 53.52691406 -193.08445312 53.05382812 -192.09765625 52.56640625 C-185.51813986 49.30255166 -178.96780839 46.00616312 -172.50219727 42.52099609 C-151.11693119 31 -151.11693119 31 -145 31 C-145 31.99 -145 32.98 -145 34 C-142.31142363 33.06550045 -139.62415464 32.12749579 -136.9375 31.1875 C-135.80924805 30.79594727 -135.80924805 30.79594727 -134.65820312 30.39648438 C-131.27513074 29.21021224 -127.99158472 27.99618855 -124.72265625 26.515625 C-119.52501676 24.23797417 -113.97602042 22.99148805 -108.5 21.5625 C-106.14452879 20.94011347 -103.78906002 20.31771771 -101.43359375 19.6953125 C-100.31065918 19.40043945 -99.18772461 19.10556641 -98.03076172 18.80175781 C-95.65224905 18.17254599 -93.2792841 17.53051831 -90.91015625 16.8671875 C-71.63013471 11.5128758 -51.99435944 7.71249628 -32.3125 4.1875 C-31.46034912 4.03461517 -30.60819824 3.88173035 -29.73022461 3.72421265 C-27.27515735 3.28543958 -24.81942827 2.85065344 -22.36328125 2.41796875 C-21.27410149 2.22460938 -21.27410149 2.22460938 -20.16291809 2.02734375 C-13.45623254 0.85873801 -6.83083735 -0.17077093 0 0 Z " transform="translate(629,319)" style="fill: #D7D6CB;"/><path d="M0 0 C27.86997445 2.92634732 27.86997445 2.92634732 39.32421875 5.26953125 C42.46879337 5.89443609 45.60784175 6.4025558 48.77856445 6.87109375 C64.37310818 9.22471302 79.68983053 13.26896652 95 17 C96.77020508 17.43046631 96.77020508 17.43046631 98.57617188 17.86962891 C99.64158203 18.13179199 100.70699219 18.39395508 101.8046875 18.6640625 C103.18503174 19.0036499 103.18503174 19.0036499 104.59326172 19.35009766 C107.3585295 20.09681533 110.00380578 21.07804516 112.6640625 22.13671875 C115.77735213 23.28728231 118.9500903 24.22479049 122.125 25.1875 C138.70411667 30.27297327 154.87950133 36.63140793 171 43 C167.65782625 44.12801934 165.74416032 43.86648603 162.4296875 42.7421875 C161.54313477 42.44892578 160.65658203 42.15566406 159.74316406 41.85351562 C158.79666992 41.53060547 157.85017578 41.20769531 156.875 40.875 C154.86801054 40.21364295 152.86018555 39.55481642 150.8515625 38.8984375 C149.35737793 38.40875488 149.35737793 38.40875488 147.83300781 37.90917969 C143.99647878 36.67794614 140.13609549 35.5629374 136.25 34.5 C135.55342285 34.30929932 134.8568457 34.11859863 134.13916016 33.92211914 C131.7608049 33.27623402 129.38065483 32.63735815 127 32 C123.59201598 31.08633275 120.18406296 30.17255436 116.77636719 29.2578125 C114.47033948 28.63963614 112.16372077 28.02365913 109.85644531 27.41015625 C108.26461426 26.98476563 108.26461426 26.98476563 106.640625 26.55078125 C105.69735352 26.29981689 104.75408203 26.04885254 103.78222656 25.7902832 C101.82858285 25.2353565 99.89128885 24.62111071 97.96948242 23.96435547 C95.24459443 23.07943336 92.6685557 22.49097806 89.84765625 22.01953125 C84.02202337 21.01009562 78.2320713 19.8608235 72.4375 18.6875 C62.05116705 16.593494 51.65202892 14.57431493 41.23999023 12.61206055 C40.20430908 12.41523682 39.16862793 12.21841309 38.1015625 12.015625 C37.18713379 11.84321289 36.27270508 11.67080078 35.33056641 11.49316406 C33 11 33 11 30 10 C30 9.34 30 8.68 30 8 C29.41476563 8.03480469 28.82953125 8.06960938 28.2265625 8.10546875 C18.5270552 8.41130907 11.14432134 6.69072022 1 5 C1 18.2 1 31.4 1 45 C0.67 45 0.34 45 0 45 C0 30.15 0 15.3 0 0 Z " transform="translate(100,318)" style="fill: #D6D3C9;"/><path d="M0 0 C3.07730333 1.4771056 6.02751421 3.14424732 8.984375 4.84765625 C12.6356846 6.93512976 16.3199001 8.96384495 20 11 C20 11.66 20 12.32 20 13 C20.66 13 21.32 13 22 13 C22 13.66 22 14.32 22 15 C22.72574219 15.24363281 23.45148438 15.48726563 24.19921875 15.73828125 C27.34439883 17.15514759 29.30204281 18.83115811 31.8125 21.1875 C32.67746094 21.98929687 33.54242188 22.79109375 34.43359375 23.6171875 C35.28050781 24.40351563 36.12742187 25.18984375 37 26 C38.45313624 27.2767727 39.91096937 28.54823429 41.375 29.8125 C51.95110591 39.04526987 54.76235891 48.69336367 57.25 62.25 C57.42515137 63.19657471 57.60030273 64.14314941 57.78076172 65.1184082 C58.66201326 70.15698384 59.19777208 74.88617917 59 80 C57.0625 79.25 57.0625 79.25 55 78 C54.20124132 75.86997684 54 74.26695035 54 72 C52.5248203 69.45924784 51.01294351 66.9775097 49.4375 64.5 C48.97641846 63.77022949 48.51533691 63.04045898 48.0402832 62.28857422 C44.51519985 56.74116413 40.85115597 51.32669466 37 46 C35.98661694 44.58098778 34.97363463 43.16168932 33.9609375 41.7421875 C25.05445477 29.28792118 15.88544103 17.68844842 5.28198242 6.62280273 C4.60111572 5.91067627 3.92024902 5.1985498 3.21875 4.46484375 C2.59935547 3.821521 1.97996094 3.17819824 1.34179688 2.51538086 C0 1 0 1 0 0 Z " transform="translate(304,302)" style="fill: #8B928C;"/><path d="M0 0 C6.15234375 -0.09765625 6.15234375 -0.09765625 8 0 C9 1 9 1 9.09765625 3.94140625 C9.06510417 7.29427083 9.03255208 10.64713542 9 14 C13.62 14 18.24 14 23 14 C23 9.38 23 4.76 23 0 C25.64 0 28.28 0 31 0 C31.02465098 4.96622349 31.04283649 9.93241166 31.05493164 14.89868164 C31.0599719 16.58944316 31.06680405 18.28020029 31.07543945 19.97094727 C31.08751857 22.39600707 31.09323123 24.82100944 31.09765625 27.24609375 C31.10281754 28.00651474 31.10797882 28.76693573 31.11329651 29.55039978 C31.11349238 31.3673257 31.06197277 33.18413127 31 35 C30 36 30 36 27.5625 36.1875 C25 36 25 36 23 34 C22.72216457 29.98805634 22.9143505 26.02552638 23 22 C18.38 22 13.76 22 9 22 C9.04125 23.93875 9.0825 25.8775 9.125 27.875 C9.1953125 31.1796875 9.1953125 31.1796875 9 34 C7 36 7 36 4.5 36.25 C2 36 2 36 0 34 C-0.17502995 31.41896694 -0.23162279 28.94691837 -0.1953125 26.3671875 C-0.1924826 25.61535187 -0.18965271 24.86351624 -0.18673706 24.08889771 C-0.17552874 21.68410422 -0.15042352 19.27968119 -0.125 16.875 C-0.11497102 15.24609912 -0.10584503 13.61719242 -0.09765625 11.98828125 C-0.07558735 7.99204444 -0.04105351 3.99608506 0 0 Z " transform="translate(326,639)" style="fill: #172D3B;"/><path d="M0 0 C0.928125 0.495 1.85625 0.99 2.8125 1.5 C2.26526317 4.87462715 1.7576 6.58235 -0.1875 9.5 C-5.9375 8.625 -5.9375 8.625 -8.1875 7.5 C-10.18710012 7.460008 -12.18797242 7.45653201 -14.1875 7.5 C-14.1875 8.49 -14.1875 9.48 -14.1875 10.5 C-13.23488281 10.65855469 -12.28226563 10.81710937 -11.30078125 10.98046875 C-10.04652344 11.21378906 -8.79226562 11.44710937 -7.5 11.6875 C-6.25863281 11.90792969 -5.01726562 12.12835937 -3.73828125 12.35546875 C0.35530829 13.67496461 2.15145974 15.15741271 4.8125 18.5 C5.35655572 22.30839006 5.17102558 24.64352224 3.6875 28.1875 C0.69822668 31.87427043 -1.91842905 34.15651678 -6.7421875 34.88671875 C-12.82601687 35.13108309 -18.33315397 34.44187497 -23.1875 30.5 C-24.40234375 28.359375 -24.40234375 28.359375 -25.1875 26.5 C-23.8675 24.85 -22.5475 23.2 -21.1875 21.5 C-18.6544876 21.92216873 -16.56046307 22.28865426 -14.3125 23.5625 C-11.26129213 24.90862112 -8.47710139 24.62652313 -5.1875 24.5 C-4.8575 23.51 -4.5275 22.52 -4.1875 21.5 C-5.25677734 21.33564453 -5.25677734 21.33564453 -6.34765625 21.16796875 C-20.31977909 18.85495245 -20.31977909 18.85495245 -23.625 14.6875 C-24.78793908 10.16495912 -24.67789024 7.44445527 -22.5 3.25 C-17.12888491 -3.137272 -7.33957941 -3.15407588 0 0 Z " transform="translate(259.1875,640.5)" style="fill: #1E313A;"/><path d="M0 0 C1.86901854 1.18523127 3.72105343 2.39736895 5.5625 3.625 C4.10994301 7.45446843 2.13354439 8.74550295 -1.4375 10.625 C-2.4275 9.965 -3.4175 9.305 -4.4375 8.625 C-7.89519191 8.04157647 -7.89519191 8.04157647 -11.4375 8.625 C-14.37057135 11.18203656 -15.29847012 12.79082071 -15.9375 16.625 C-15.29847012 20.45917929 -14.37057135 22.06796344 -11.4375 24.625 C-7.66309459 25.10537887 -5.30964711 25.05043762 -1.875 23.375 C-1.070625 23.1275 -0.26625 22.88 0.5625 22.625 C3.875 24.5 3.875 24.5 6.5625 26.625 C5.37830126 30.30917387 3.13611829 32.0783435 -0.2421875 33.859375 C-5.86204679 35.81932593 -11.49485828 35.56034601 -16.8125 33 C-21.21580865 29.01605408 -25.01251527 25.38307928 -25.7109375 19.20703125 C-25.96174191 12.36778793 -25.1765539 7.73692362 -20.4375 2.625 C-14.5971247 -2.60762051 -7.07561613 -2.83024645 0 0 Z " transform="translate(303.4375,640.375)" style="fill: #17303C;"/><path d="M0 0 C3.5 0.125 3.5 0.125 4.5 1.125 C4.58737645 2.97869611 4.60698153 4.83567541 4.59765625 6.69140625 C4.59443359 7.81611328 4.59121094 8.94082031 4.58789062 10.09960938 C4.57951172 11.28361328 4.57113281 12.46761719 4.5625 13.6875 C4.55798828 14.87537109 4.55347656 16.06324219 4.54882812 17.28710938 C4.53699675 20.23312226 4.52051287 23.17903681 4.5 26.125 C6.18029297 26.07279297 6.18029297 26.07279297 7.89453125 26.01953125 C9.36717251 25.99139161 10.83982998 25.96409163 12.3125 25.9375 C13.05048828 25.91236328 13.78847656 25.88722656 14.54882812 25.86132812 C20.00223409 25.78729999 20.00223409 25.78729999 22.4921875 27.4765625 C23.91845817 29.80945483 23.84343452 31.44621076 23.5 34.125 C20.89131631 36.73368369 19.75467636 36.38228913 16.125 36.390625 C15.05765625 36.39320313 13.9903125 36.39578125 12.890625 36.3984375 C11.21226562 36.38683594 11.21226562 36.38683594 9.5 36.375 C8.38109375 36.38273438 7.2621875 36.39046875 6.109375 36.3984375 C5.04203125 36.39585937 3.9746875 36.39328125 2.875 36.390625 C1.89273437 36.38836914 0.91046875 36.38611328 -0.1015625 36.38378906 C-2.5 36.125 -2.5 36.125 -4.5 34.125 C-4.68721852 31.62756138 -4.75579767 29.24311317 -4.73046875 26.74609375 C-4.73001053 26.01882584 -4.72955231 25.29155792 -4.7290802 24.54225159 C-4.72605836 23.00479501 -4.71817405 21.46734148 -4.70581055 19.92993164 C-4.68754573 17.56841265 -4.6853009 15.20728539 -4.68554688 12.84570312 C-4.68063203 11.35416326 -4.67480386 9.86262606 -4.66796875 8.37109375 C-4.66685593 7.66069443 -4.6657431 6.9502951 -4.66459656 6.21836853 C-4.60555405 0.16448407 -4.60555405 0.16448407 0 0 Z " transform="translate(473.5,638.875)" style="fill: #1F3440;"/><path d="M0 0 C0 1.32 0 2.64 0 4 C0.99 4.495 0.99 4.495 2 5 C1.05495605 5.45213867 0.10991211 5.90427734 -0.86376953 6.37011719 C-18.40203254 14.7722691 -35.8286827 23.23514211 -52.7890625 32.76464844 C-56.13042268 34.63161868 -59.50081162 36.4432371 -62.875 38.25 C-63.88304687 38.79140625 -64.89109375 39.3328125 -65.9296875 39.890625 C-66.61289062 40.25671875 -67.29609375 40.6228125 -68 41 C-68.66 40.34 -69.32 39.68 -70 39 C-69.01 38.34 -68.02 37.68 -67 37 C-66.74969023 34.41619823 -66.74969023 34.41619823 -67 32 C-54.94673064 25.24144844 -42.76222338 18.76745958 -30.41772461 12.55908203 C-29.02867037 11.8602861 -27.64062472 11.15948121 -26.25366211 10.45654297 C-5.59263126 0 -5.59263126 0 0 0 Z " transform="translate(565,251)" style="fill: #DADBD1;"/><path d="M0 0 C19.88701156 8.61770501 40.77897027 34.74370394 52.51171875 52.41796875 C54.69785864 55.70275766 57.11027605 58.31854445 60 61 C59.505 61.99 59.505 61.99 59 63 C55.91652178 61.63927139 53.94525503 60.1399833 51.6796875 57.65625 C51.06681885 56.99165771 50.4539502 56.32706543 49.82250977 55.64233398 C49.17983154 54.93536377 48.53715332 54.22839355 47.875 53.5 C46.52852611 52.04187603 45.18086905 50.58484376 43.83203125 49.12890625 C43.1767041 48.42008301 42.52137695 47.71125977 41.84619141 46.98095703 C36.14713403 40.86588806 30.20698254 35.06794425 23.8515625 29.63671875 C22.04071993 28.03599504 20.36591757 26.36307696 18.6875 24.625 C15.78687111 21.65784292 12.6814303 19.08637686 9.4375 16.5 C5.05269337 12.9788674 1.47367518 9.41250631 -2 5 C-1.34 3.35 -0.68 1.7 0 0 Z " transform="translate(300,314)" style="fill: #CCCFC2;"/><path d="M0 0 C3.74532361 2.02449925 5.34569193 5.57583514 7.3125 9.25 C-1.20182218 13.80234175 -9.46938338 17.4005102 -18.703125 20.20703125 C-21.75994034 21.03294975 -21.75994034 21.03294975 -23.6875 23.25 C-24.38656942 21.65084119 -25.07139468 20.04544955 -25.75 18.4375 C-26.13285156 17.54417969 -26.51570313 16.65085937 -26.91015625 15.73046875 C-27.6875 13.25 -27.6875 13.25 -26.6875 10.25 C-24.16396276 9.13536341 -21.72847716 8.194833 -19.125 7.3125 C-14.58805075 5.71372735 -10.21759725 4.15741893 -6 1.8125 C-2.6875 0.25 -2.6875 0.25 0 0 Z " transform="translate(424.6875,546.75)" style="fill: #98A19D;"/><path d="M0 0 C7.29339977 3.73009635 14.11748098 7.95551913 20.87133789 12.57177734 C24.30765758 14.94038549 24.30765758 14.94038549 27.96875 16.92724609 C30.26633084 18.14065597 31.89331811 19.55751776 33.78515625 21.3359375 C34.48060547 21.98820312 35.17605469 22.64046875 35.89257812 23.3125 C36.60865234 23.993125 37.32472656 24.67375 38.0625 25.375 C38.78244141 26.04789062 39.50238281 26.72078125 40.24414062 27.4140625 C43.47238767 30.45946547 46.40784298 33.38222662 49 37 C44.78782073 35.52300207 41.32983496 33.33481696 37.6875 30.8125 C30.72831072 26.08276233 23.63722105 21.58081617 16.5 17.125 C15.47350342 16.48280518 14.44700684 15.84061035 13.3894043 15.17895508 C8.31304986 12.01615237 3.2209094 8.91842969 -2 6 C-2 5.01 -2 4.02 -2 3 C-1.34 3 -0.68 3 0 3 C0 2.01 0 1.02 0 0 Z " transform="translate(295,347)" style="fill: #C8CBC5;"/><path d="M0 0 C2 0.25 2 0.25 4 1 C4.495 2.485 4.495 2.485 5 4 C-3.8667378 11.54166092 -12.811267 18.97430736 -21.84765625 26.3125 C-27.32607305 30.77360419 -32.72513381 35.29947454 -38 40 C-38.33 39.34 -38.66 38.68 -39 38 C-37.75717988 35.54961707 -36.47117661 33.226675 -35.0625 30.875 C-34.48338867 29.88693359 -34.48338867 29.88693359 -33.89257812 28.87890625 C-32.93553422 27.248387 -31.96867185 25.62363816 -31 24 C-30.67 25.32 -30.34 26.64 -30 28 C-28.64508116 26.50067938 -27.29111322 25.00049946 -25.9375 23.5 C-24.69806641 22.12908203 -24.69806641 22.12908203 -23.43359375 20.73046875 C-21.40826182 18.45806583 -19.45046723 16.14847134 -17.5 13.8125 C-12.84719944 8.46557535 -7.38322607 4.08731195 -1 1 C-0.67 0.67 -0.34 0.34 0 0 Z " transform="translate(413,341)" style="fill: #CACEC6;"/><path d="M0 0 C3.51589455 2.65645366 4.84398522 4.04657633 5.5625 8.4375 C4.89371633 12.6731299 3.87604452 14.82121395 1 18 C-1.875 19.1875 -1.875 19.1875 -5 19 C-7.97852636 17.23085209 -10.4282376 15.14352481 -12 12 C-12.40417552 9.03604618 -12.56382171 6.91095074 -10.953125 4.30859375 C-7.35208016 -0.08679922 -5.52640064 -1.79929323 0 0 Z " transform="translate(392,648)" style="fill: #F2F4F4;"/><path d="M0 0 C0.99 0.33 1.98 0.66 3 1 C1.35 2.65 -0.3 4.3 -2 6 C-0.02 6 1.96 6 4 6 C4 5.34 4 4.68 4 4 C5.32 4.33 6.64 4.66 8 5 C7.35901367 5.33507568 6.71802734 5.67015137 6.05761719 6.01538086 C-7.26826959 13.01182495 -20.38028693 20.25962162 -33.25 28.0625 C-33.84800415 28.42294403 -34.4460083 28.78338806 -35.06213379 29.15475464 C-41.03774837 32.76403491 -46.8253053 36.29322982 -52 41 C-52.66 40.67 -53.32 40.34 -54 40 C-45.96021743 32.97520659 -37.72983524 26.502073 -28.97753906 20.39355469 C-24.44027821 17.19618617 -19.96554172 13.91010118 -15.47973633 10.64111328 C-13.32863063 9.0813241 -11.16668967 7.53805537 -9 6 C-8.1951416 5.41927734 -7.3902832 4.83855469 -6.56103516 4.24023438 C-5.76358887 3.68142578 -4.96614258 3.12261719 -4.14453125 2.546875 C-3.42241455 2.03479492 -2.70029785 1.52271484 -1.95629883 0.99511719 C-1.31072021 0.66672852 -0.6651416 0.33833984 0 0 Z M-4 6 C-4.33 6.99 -4.66 7.98 -5 9 C-4.01 8.67 -3.02 8.34 -2 8 C-2 7.34 -2 6.68 -2 6 C-2.66 6 -3.32 6 -4 6 Z " transform="translate(444,344)" style="fill: #BFC7C1;"/><path d="M0 0 C2.90853815 2.0682938 4.66393522 3.61561373 5.5234375 7.15625 C5.75531576 10.46879661 5.73027612 12.93118528 3.8203125 15.7265625 C1.47948729 17.89758692 -0.3546848 18.9842606 -3.5625 19.0625 C-6.80931427 17.64722198 -8.66462471 16.73572534 -11 14 C-11.66387092 10.56046189 -11.63581287 7.44255434 -11 4 C-7.80442108 -0.36729119 -5.17569066 -1.68510859 0 0 Z " transform="translate(440,648)" style="fill: #F5F6F6;"/><path d="M0 0 C2.36973444 1.96637539 4.69452728 3.95972081 7 6 C7.66386719 6.58394531 8.32773437 7.16789062 9.01171875 7.76953125 C15.04024742 13.41918751 19.69795761 19.85991468 24.39501953 26.61621094 C27.32689984 30.81181723 30.24084221 34.51929834 34 38 C33.505 38.99 33.505 38.99 33 40 C29.91652178 38.63927139 27.94525503 37.1399833 25.6796875 34.65625 C25.06665771 33.99149658 24.45362793 33.32674316 23.82202148 32.6418457 C23.17950439 31.93503662 22.5369873 31.22822754 21.875 30.5 C20.53114384 29.04446784 19.18609037 27.59004022 17.83984375 26.13671875 C17.18483887 25.42821777 16.52983398 24.7197168 15.85498047 23.98974609 C10.95434031 18.73307101 5.97978118 13.51243404 0.375 9 C-0.40875 8.34 -1.1925 7.68 -2 7 C-2 6.34 -2 5.68 -2 5 C-1.34 5 -0.68 5 0 5 C0 3.35 0 1.7 0 0 Z " transform="translate(326,337)" style="fill: #C2C5BB;"/><path d="M0 0 C11.88 0 23.76 0 36 0 C36 8.91 36 17.82 36 27 C24.12 27 12.24 27 0 27 C0 18.09 0 9.18 0 0 Z M1 1 C1 9.25 1 17.5 1 26 C12.22 26 23.44 26 35 26 C35 17.75 35 9.5 35 1 C34.67 1.99 34.34 2.98 34 4 C23.44 4 12.88 4 2 4 C2 3.34 2 2.68 2 2 C9.59 2 17.18 2 25 2 C25 1.67 25 1.34 25 1 C17.08 1 9.16 1 1 1 Z " transform="translate(206,560)" style="fill: #4F5F63;"/><path d="M0 0 C7.31909858 1.93091797 14.30009121 4.60205643 21.32714844 7.38330078 C25.40082251 8.99498514 29.47475779 10.53106391 33.625 11.9375 C41.05684786 14.57760871 48.00686581 18.38497957 55 22 C51.61781037 23.12739654 51.28762597 22.96648391 48.2109375 21.59375 C47.44612061 21.2652002 46.68130371 20.93665039 45.89331055 20.59814453 C45.06226807 20.23575684 44.23122559 19.87336914 43.375 19.5 C32.38059836 14.88552032 21.11106791 11.73357212 9.59912109 8.69238281 C6.38656381 7.83658604 3.19247882 6.92757495 0 6 C0 4.02 0 2.04 0 0 Z " transform="translate(269,362)" style="fill: #909F9C;"/><path d="M0 0 C2.4375 1.5625 2.4375 1.5625 4 4 C4.56288002 7.94016013 4.60396028 10.05782196 2.4375 13.4375 C-0.96719488 15.61999672 -3.03430012 15.63734462 -7 15 C-9.96135546 12.41830549 -10.86756104 10.81118865 -11.5 6.9375 C-11 4 -11 4 -9.4375 1.625 C-6.06489221 -0.62340519 -3.97487617 -0.56783945 0 0 Z " transform="translate(218,228)" style="fill: #152E40;"/><path d="M0 0 C6.5896875 0.7115625 6.5896875 0.7115625 13.3125 1.4375 C15.38591675 1.65877563 15.38591675 1.65877563 17.5012207 1.88452148 C19.13450317 2.06349976 19.13450317 2.06349976 20.80078125 2.24609375 C21.91622314 2.36654053 23.03166504 2.4869873 24.1809082 2.61108398 C27 3 27 3 30 4 C30 5.32 30 6.64 30 8 C19.86874032 8.60251985 11.33132784 6.72188797 1 5 C1 18.2 1 31.4 1 45 C0.67 45 0.34 45 0 45 C0 30.15 0 15.3 0 0 Z " transform="translate(100,318)" style="fill: #BABEBA;"/><path d="M0 0 C-0.33 0.99 -0.66 1.98 -1 3 C-21.13 3 -41.26 3 -62 3 C-62 2.67 -62 2.34 -62 2 C-51.78878425 0.01129463 -42.04387602 -0.21680381 -31.6875 -0.0625 C-29.43195833 -0.03462388 -27.17649024 -0.00994894 -24.92085266 0.00868225 C-22.88816431 0.02625087 -20.85556815 0.05369171 -18.82299805 0.08178711 C-16.03626768 0.02216934 -13.50579103 -0.15453305 -10.76489258 -0.52905273 C-6.77435924 -1.02822521 -3.91378873 -0.73383539 0 0 Z " transform="translate(192,577)" style="fill: #1E3844;"/><path d="M0 0 C-0.99 0.33 -1.98 0.66 -3 1 C-3 1.66 -3 2.32 -3 3 C-2.34 3.33 -1.68 3.66 -1 4 C-2.19206055 4.40726318 -2.19206055 4.40726318 -3.40820312 4.82275391 C-26.10301066 11.9457642 -26.10301066 11.9457642 -48 21 C-48 20.01 -48 19.02 -48 18 C-20.79287277 6.20481779 -20.79287277 6.20481779 -9.375 1.6875 C-8.27696045 1.24458618 -8.27696045 1.24458618 -7.15673828 0.79272461 C-2.23925781 -1.11962891 -2.23925781 -1.11962891 0 0 Z " transform="translate(566,286)" style="fill: #E9EFEC;"/><path d="M0 0 C0.495 1.98 0.495 1.98 1 4 C-5.5320093 6.77204909 -12.10087989 9.01540026 -18.921875 10.97265625 C-24.68648553 12.89405145 -24.68648553 12.89405145 -29.4453125 16.5234375 C-31.87982752 18.83561508 -34.72781809 19.54045317 -37.875 20.625 C-39.08929688 21.05039062 -40.30359375 21.47578125 -41.5546875 21.9140625 C-44.37839989 22.80407616 -47.08708433 23.50159238 -50 24 C-46.54747333 21.16648695 -42.74124594 19.2577686 -38.75 17.3125 C-37.31371003 16.60435335 -35.87751483 15.89601444 -34.44140625 15.1875 C-33.70680176 14.8265625 -32.97219727 14.465625 -32.21533203 14.09375 C-29.37385529 12.69086089 -26.54545542 11.26274124 -23.71655273 9.8347168 C-4.19509792 0 -4.19509792 0 0 0 Z " transform="translate(484,350)" style="fill: #EDF0EC;"/><path d="M0 0 C5.66259915 1.04006923 8.30223788 2.8750973 12.1796875 7.07421875 C14.03826682 9.040484 15.99398381 10.75788466 18.0625 12.5 C21.79822618 15.71141373 24.88672148 19.18623381 28 23 C23.4077716 21.42251696 19.72269396 18.96807976 15.75 16.25 C15.0912085 15.80479004 14.43241699 15.35958008 13.75366211 14.90087891 C12.44055509 14.01345739 11.12859544 13.12433541 9.81787109 12.23339844 C7.40920486 10.5991543 4.98674187 8.98602242 2.5625 7.375 C0.78125 6.1875 0.78125 6.1875 -1 5 C-0.01 4.67 0.98 4.34 2 4 C1.34 2.68 0.68 1.36 0 0 Z " transform="translate(316,361)" style="fill: #BFC6C2;"/><path d="M0 0 C-3.60660989 3.70028807 -7.35666278 7.11539035 -11.3125 10.4375 C-11.8799292 10.91614502 -12.4473584 11.39479004 -13.03198242 11.88793945 C-17.24379746 15.41863391 -21.55039911 18.77185817 -26 22 C-24.42986223 16.03347646 -21.24970218 11.17090975 -18 6 C-17.67 7.32 -17.34 8.64 -17 10 C-16.56429688 9.45730469 -16.12859375 8.91460937 -15.6796875 8.35546875 C-6.45202952 -2.7297048 -6.45202952 -2.7297048 0 0 Z " transform="translate(400,359)" style="fill: #AEB7B5;"/><path d="M0 0 C0 0.99 0 1.98 0 3 C-2.06228466 3.48009262 -4.12483701 3.95903544 -6.1875 4.4375 C-7.33605469 4.70433594 -8.48460937 4.97117187 -9.66796875 5.24609375 C-14.95541542 6.4424328 -19.5496721 7.10686917 -25 7 C-25.33 7.66 -25.66 8.32 -26 9 C-26.33 7.35 -26.66 5.7 -27 4 C-17.96228804 1.80945701 -9.35309095 -0.23382727 0 0 Z " transform="translate(629,319)" style="fill: #CBCABD;"/><path d="M0 0 C2.27113803 0.14100857 4.54190725 0.28796755 6.8125 0.4375 C8.07707031 0.51871094 9.34164062 0.59992188 10.64453125 0.68359375 C14 1 14 1 17 2 C17 3.32 17 4.64 17 6 C9.40501039 6.26442904 2.42640842 5.60881575 -5 4 C-4.0409375 3.8453125 -4.0409375 3.8453125 -3.0625 3.6875 C-2.381875 3.460625 -1.70125 3.23375 -1 3 C-0.67 2.01 -0.34 1.02 0 0 Z " transform="translate(113,320)" style="fill: #C6C6BF;"/><path d="M0 0 C0 0.66 0 1.32 0 2 C-3.92900205 3.3114418 -7.86166531 4.61116701 -11.7980957 5.90014648 C-13.13671995 6.34029769 -14.47429965 6.78363892 -15.81079102 7.23022461 C-17.73176045 7.87149885 -19.65685378 8.50037787 -21.58203125 9.12890625 C-23.31803589 9.70233765 -23.31803589 9.70233765 -25.08911133 10.28735352 C-28 11 -28 11 -31 10 C-28.0724592 7.59791524 -25.38370917 6.2367824 -21.8125 5 C-20.84957031 4.66355469 -19.88664062 4.32710938 -18.89453125 3.98046875 C-17.93933594 3.65691406 -16.98414063 3.33335937 -16 3 C-14.70642578 2.56107422 -14.70642578 2.56107422 -13.38671875 2.11328125 C-11.26060621 1.39993743 -9.13145925 0.6971648 -7 0 C-3.86650268 -1.04449911 -3.01031744 -0.93423645 0 0 Z " transform="translate(486,355)" style="fill: #CCCEC2;"/><path d="M0 0 C1.42892578 0.11794922 1.42892578 0.11794922 2.88671875 0.23828125 C5.3125 0.6875 5.3125 0.6875 7.3125 2.6875 C6.3225 4.1725 6.3225 4.1725 5.3125 5.6875 C0.0325 5.0275 -5.2475 4.3675 -10.6875 3.6875 C-10.6875 2.6975 -10.6875 1.7075 -10.6875 0.6875 C-6.96764333 -0.21366746 -3.80715974 -0.34799414 0 0 Z " transform="translate(601.6875,438.3125)" style="fill: #233842;"/><path d="M0 0 C5.02230086 1.47221435 7.80278222 4.4489651 11.3125 8.125 C12.13717773 8.96998047 12.13717773 8.96998047 12.97851562 9.83203125 C14.32595438 11.21462058 15.66394273 12.60640916 17 14 C13.70767651 14 12.89675367 13.53392235 10.20703125 11.8125 C9.1387207 11.13574219 9.1387207 11.13574219 8.04882812 10.4453125 C7.31083984 9.96835937 6.57285156 9.49140625 5.8125 9 C5.06291016 8.52304687 4.31332031 8.04609375 3.54101562 7.5546875 C1.69008444 6.37575044 -0.15662521 5.19070421 -2 4 C-1.34 3.67 -0.68 3.34 0 3 C0 2.01 0 1.02 0 0 Z " transform="translate(327,369)" style="fill: #B4BFBB;"/><path d="M0 0 C0.33 0.99 0.66 1.98 1 3 C-0.66675781 3.45439453 -0.66675781 3.45439453 -2.3671875 3.91796875 C-10.04759971 6.06451229 -17.24630655 8.1874209 -24.21484375 12.1796875 C-24.80394531 12.45039063 -25.39304687 12.72109375 -26 13 C-26.66 12.67 -27.32 12.34 -28 12 C-25.15268151 10.36278059 -22.296039 8.74253649 -19.4375 7.125 C-18.63763672 6.66480469 -17.83777344 6.20460938 -17.01367188 5.73046875 C-11.49513858 2.62207041 -6.47238273 0 0 0 Z " transform="translate(442,372)" style="fill: #748384;"/><path d="M0 0 C-3.98531825 2.02978942 -7.98878547 4.02200322 -12 6 C-12.85706543 6.42297363 -13.71413086 6.84594727 -14.59716797 7.28173828 C-17.43531138 8.67635601 -20.27939456 10.05817955 -23.125 11.4375 C-24.06174561 11.89882324 -24.99849121 12.36014648 -25.96362305 12.83544922 C-27.28487183 13.47184326 -27.28487183 13.47184326 -28.6328125 14.12109375 C-29.82221436 14.70008423 -29.82221436 14.70008423 -31.03564453 15.29077148 C-31.68388184 15.52481689 -32.33211914 15.7588623 -33 16 C-33.66 15.67 -34.32 15.34 -35 15 C-29.47893904 12.07637093 -23.95054753 9.16713467 -18.41552734 6.27001953 C-16.34011911 5.17882551 -14.27239405 4.07487001 -12.20703125 2.96484375 C-11.16933594 2.41957031 -10.13164062 1.87429688 -9.0625 1.3125 C-7.71865234 0.59513672 -7.71865234 0.59513672 -6.34765625 -0.13671875 C-3.72135468 -1.10246359 -2.57570499 -0.98605876 0 0 Z " transform="translate(517,307)" style="fill: #DFE7E5;"/><path d="M0 0 C4.10351525 1.36783842 5.04420428 4.08104211 7 7.6875 C7.34289062 8.30044922 7.68578125 8.91339844 8.0390625 9.54492188 C9.04429866 11.35396329 10.02298366 13.17560217 11 15 C11.8971875 16.61841797 11.8971875 16.61841797 12.8125 18.26953125 C14 21 14 21 13 24 C8.82117705 19.41134502 6.22256905 14.83007306 3.6875 9.1875 C3.32849609 8.41212891 2.96949219 7.63675781 2.59960938 6.83789062 C0 1.17816964 0 1.17816964 0 0 Z " transform="translate(339,316)" style="fill: #D9E1E1;"/><path d="M0 0 C-1.65 1.65 -3.3 3.3 -5 5 C-3.02 5 -1.04 5 1 5 C1 4.34 1 3.68 1 3 C2.32 3.33 3.64 3.66 5 4 C-0.50623443 7.49602186 -4.40770855 9.7013076 -11 9 C-10.91952772 6.1834702 -10.52438279 4.51090251 -8.48046875 2.51953125 C-3.55255498 -1.18418499 -3.55255498 -1.18418499 0 0 Z M-7 5 C-7.33 5.99 -7.66 6.98 -8 8 C-7.01 7.67 -6.02 7.34 -5 7 C-5 6.34 -5 5.68 -5 5 C-5.66 5 -6.32 5 -7 5 Z " transform="translate(447,345)" style="fill: #C5CAC4;"/><path d="M0 0 C0.33 0.66 0.66 1.32 1 2 C0.67 2.66 0.34 3.32 0 4 C-2.5625 4.625 -2.5625 4.625 -5 5 C-5.33 5.99 -5.66 6.98 -6 8 C-7.9812585 8.72045764 -9.98504093 9.38001259 -12 10 C-13.67334039 10.98879205 -15.34151823 11.98648336 -17 13 C-17.66 13 -18.32 13 -19 13 C-17.61521827 9.60383846 -16.34037438 8.29213028 -13.0859375 6.640625 C-12.32539063 6.24746094 -11.56484375 5.85429687 -10.78125 5.44921875 C-9.9871875 5.05347656 -9.193125 4.65773438 -8.375 4.25 C-7.57320313 3.83878906 -6.77140625 3.42757813 -5.9453125 3.00390625 C-3.96862257 1.99202926 -1.98706217 0.99130984 0 0 Z " transform="translate(481,322)" style="fill: #BAC3BD;"/><path d="M0 0 C0.99 0.99 1.98 1.98 3 3 C1.90300781 3.67546875 0.80601562 4.3509375 -0.32421875 5.046875 C-1.77875113 5.94774667 -3.23317236 6.84879784 -4.6875 7.75 C-5.40873047 8.1934375 -6.12996094 8.636875 -6.87304688 9.09375 C-10.78627646 11.52388344 -14.47080229 14.02071673 -18 17 C-18.66 16.67 -19.32 16.34 -20 16 C-6.3667426 4.29384966 -6.3667426 4.29384966 0 0 Z " transform="translate(410,368)" style="fill: #98A8A9;"/><path d="M0 0 C4.49324849 1.65770333 8.61186146 3.84982162 12.8125 6.125 C13.50537109 6.49753906 14.19824219 6.87007813 14.91210938 7.25390625 C16.60934836 8.16690377 18.30485138 9.08312716 20 10 C15.99333212 11.33555596 13.81615876 9.87074171 10.1875 8.1875 C5.83550955 6.22374011 1.55740565 4.43073225 -3 3 C-2.01 2.01 -1.02 1.02 0 0 Z " transform="translate(282,363)" style="fill: #E7EEEE;"/><path d="M0 0 C-0.33 1.65 -0.66 3.3 -1 5 C-2.41396902 5.50757862 -3.83131729 6.00574925 -5.25 6.5 C-6.43335938 6.91765625 -6.43335938 6.91765625 -7.640625 7.34375 C-10 8 -10 8 -14 8 C-14.33 7.01 -14.66 6.02 -15 5 C-14.14535156 4.72285156 -13.29070312 4.44570313 -12.41015625 4.16015625 C-11.30542969 3.79792969 -10.20070313 3.43570312 -9.0625 3.0625 C-7.96035156 2.70285156 -6.85820312 2.34320313 -5.72265625 1.97265625 C-0.20080321 0 -0.20080321 0 0 0 Z " transform="translate(456,366)" style="fill: #929C95;"/><path d="M0 0 C-6.07792208 6.24675325 -6.07792208 6.24675325 -9 8 C-9.99 7.67 -10.98 7.34 -12 7 C-12.99 7 -13.98 7 -15 7 C-6.16916168 -2.61002994 -6.16916168 -2.61002994 0 0 Z " transform="translate(400,359)" style="fill: #B5BFB6;"/><path d="M0 0 C1.32 1.32 2.64 2.64 4 4 C2.23628182 5.03307771 0.46374967 6.05112049 -1.3125 7.0625 C-2.79169922 7.91521484 -2.79169922 7.91521484 -4.30078125 8.78515625 C-7 10 -7 10 -10 9 C-6.83047153 5.73991357 -3.60062011 2.77762123 0 0 Z " transform="translate(421,360)" style="fill: #B4C0BD;"/><path d="M0 0 C-0.99 0.33 -1.98 0.66 -3 1 C-3 1.66 -3 2.32 -3 3 C-2.34 3.33 -1.68 3.66 -1 4 C-5.92984325 6.03993514 -9.57960425 7.40652968 -15 7 C-12.76195432 3.49151254 -10.80509042 2.16276645 -6.9375 0.6875 C-6.05964844 0.34074219 -5.18179688 -0.00601562 -4.27734375 -0.36328125 C-2 -1 -2 -1 0 0 Z " transform="translate(566,286)" style="fill: #EEF4F2;"/><path d="M0 0 C3.39524985 4.08540577 6.33366458 8.38289169 9.25 12.8125 C9.93835938 13.85180664 9.93835938 13.85180664 10.640625 14.91210938 C11.76254025 16.60666887 12.88156672 18.30314034 14 20 C13.67 20.66 13.34 21.32 13 22 C12.64172119 21.52054932 12.28344238 21.04109863 11.91430664 20.54711914 C10.29786735 18.38495777 8.68020021 16.22371811 7.0625 14.0625 C6.21655273 12.93038086 6.21655273 12.93038086 5.35351562 11.77539062 C4.81533203 11.05673828 4.27714844 10.33808594 3.72265625 9.59765625 C2.97640991 8.60004272 2.97640991 8.60004272 2.21508789 7.58227539 C1.09155506 6.04817319 1.09155506 6.04817319 0 5 C-0.04063832 3.33382885 -0.042721 1.66611905 0 0 Z " transform="translate(342,349)" style="fill: #E9EDE7;"/><path d="M0 0 C0.66 0.33 1.32 0.66 2 1 C1.9375 2.8125 1.9375 2.8125 1 5 C-2.4960903 6.81278756 -5.03981755 8 -9 8 C-9 6.68 -9 5.36 -9 4 C-7.54618103 3.30300448 -6.08677047 2.61766134 -4.625 1.9375 C-3.40683594 1.36322266 -3.40683594 1.36322266 -2.1640625 0.77734375 C-1.44992187 0.52082031 -0.73578125 0.26429688 0 0 Z " transform="translate(493,345)" style="fill: #EEF1EF;"/><path d="M0 0 C0.3125 2.3125 0.3125 2.3125 0 5 C-2.25 6.875 -2.25 6.875 -5 8 C-7.3125 7.6875 -7.3125 7.6875 -9 7 C-7.87838407 3.74731379 -7.01101988 3.00629707 -3.9375 1.25 C-1 0 -1 0 0 0 Z " transform="translate(431,355)" style="fill: #C5CDC7;"/><path d="M0 0 C0.66 0.99 1.32 1.98 2 3 C-14.04692082 10.31769306 -14.04692082 10.31769306 -18 9 C-12 6 -6 3 0 0 Z " transform="translate(452,364)" style="fill: #D2DBD2;"/><path d="M0 0 C3.59905908 0.55550695 4.99909799 1.74887248 7.25 4.5625 C8.03117187 5.52349609 8.03117187 5.52349609 8.828125 6.50390625 C9.21484375 6.99761719 9.6015625 7.49132812 10 8 C9.67 8.66 9.34 9.32 9 10 C5.17647894 8.4422692 2.70794407 6.08404742 0 3 C0 2.01 0 1.02 0 0 Z " transform="translate(350,367)" style="fill: #AAB2AA;"/><path d="M0 0 C8.35347679 1.07095856 15.60524576 4.10094776 23 8 C19.42515711 9.1916143 18.71412118 8.74788456 15.33203125 7.34765625 C14.43935547 6.98349609 13.54667969 6.61933594 12.62695312 6.24414062 C11.69818359 5.85419922 10.76941406 5.46425781 9.8125 5.0625 C8.87212891 4.67642578 7.93175781 4.29035156 6.96289062 3.89257812 C4.63830372 2.93678351 2.31770801 1.97232993 0 1 C0 0.67 0 0.34 0 0 Z " transform="translate(301,376)" style="fill: #718486;"/><path d="M0 0 C-0.99 0.33 -1.98 0.66 -3 1 C-3.33 1.99 -3.66 2.98 -4 4 C-6.03125 4.87890625 -6.03125 4.87890625 -8.5 5.5625 C-10.91495405 6.20384717 -10.91495405 6.20384717 -13 7 C-13.33 7.66 -13.66 8.32 -14 9 C-14.99 9 -15.98 9 -17 9 C-15.65956883 4.9787065 -13.17755644 4.11049831 -9.625 2.25 C-9.03460938 1.92128906 -8.44421875 1.59257812 -7.8359375 1.25390625 C-3.37761769 -1.12587256 -3.37761769 -1.12587256 0 0 Z " transform="translate(470,357)" style="fill: #DEE5E2;"/><path d="M0 0 C5.607549 0.41030846 12.93887682 1.93887682 17 6 C14.95737483 5.71512349 12.91592973 5.42177949 10.875 5.125 C9.73804688 4.96257812 8.60109375 4.80015625 7.4296875 4.6328125 C4.13921085 4.02568583 1.14220897 3.13654367 -2 2 C-1.34 1.34 -0.68 0.68 0 0 Z " transform="translate(293,372)" style="fill: #9CABAB;"/><path d="M0 0 C-3.07150755 2.55227651 -5.98525624 3.88776704 -9.75 5.1875 C-10.73484375 5.53167969 -11.7196875 5.87585938 -12.734375 6.23046875 C-13.48203125 6.48441406 -14.2296875 6.73835938 -15 7 C-15 6.01 -15 5.02 -15 4 C-13.25705322 3.13153169 -11.50531337 2.28069373 -9.75 1.4375 C-8.77546875 0.96183594 -7.8009375 0.48617188 -6.796875 -0.00390625 C-3.90143703 -1.03510273 -2.80033839 -1.11346788 0 0 Z " transform="translate(533,300)" style="fill: #E0E7E4;"/><path d="M0 0 C0.33 0 0.66 0 1 0 C1.33 4.29 1.66 8.58 2 13 C-2 11 -2 11 -2.8125 9 C-3 7 -3 7 -2 5 C-1.34 5 -0.68 5 0 5 C0 3.35 0 1.7 0 0 Z " transform="translate(361,369)" style="fill: #657777;"/><path d="M0 0 C0 4.29 0 8.58 0 13 C-1.65 13.66 -3.3 14.32 -5 15 C-4.67 14.01 -4.34 13.02 -4 12 C-3.34 12 -2.68 12 -2 12 C-2.33 8.37 -2.66 4.74 -3 1 C-1 0 -1 0 0 0 Z " transform="translate(576,286)" style="fill: #7E8C8C;"/><path d="M0 0 C0.66 0 1.32 0 2 0 C3.54296875 1.86328125 3.54296875 1.86328125 5.1875 4.3125 C5.73792969 5.11300781 6.28835938 5.91351563 6.85546875 6.73828125 C7.23316406 7.48464844 7.61085938 8.23101562 8 9 C7.67 9.99 7.34 10.98 7 12 C5.99406757 10.8803014 4.9954151 9.7540588 4 8.625 C3.443125 7.99851562 2.88625 7.37203125 2.3125 6.7265625 C1 5 1 5 1 3 C0.34 2.67 -0.32 2.34 -1 2 C-0.67 1.34 -0.34 0.68 0 0 Z " transform="translate(331,303)" style="fill: #EBF0F0;"/><path d="M0 0 C-3.90456127 3.53269829 -6.80177328 5.63855967 -12 7 C-10.95724749 3.7558811 -9.38759509 2.39805336 -6.5625 0.6875 C-3 -1 -3 -1 0 0 Z " transform="translate(461,336)" style="fill: #BDC7C0;"/><path d="M0 0 C3.21043882 1.38188453 5.04936365 2.92421903 7.25 5.625 C7.77078125 6.25664062 8.2915625 6.88828125 8.828125 7.5390625 C9.40820312 8.26222656 9.40820312 8.26222656 10 9 C5.89041233 7.54955729 2.56741255 5.48889248 -1 3 C-0.67 2.01 -0.34 1.02 0 0 Z " transform="translate(334,375)" style="fill: #A7B3B2;"/><path d="M0 0 C0 0.66 0 1.32 0 2 C1.65 2 3.3 2 5 2 C3 4 3 4 -0.625 4.125 C-1.73875 4.08375 -2.8525 4.0425 -4 4 C-4.33 4.66 -4.66 5.32 -5 6 C-5.33 4.35 -5.66 2.7 -6 1 C-4 0 -4 0 0 0 Z " transform="translate(608,322)" style="fill: #B9BDB6;"/><path d="M0 0 C3 1 3 1 4.38671875 3.28515625 C4.81597656 4.20167969 5.24523437 5.11820312 5.6875 6.0625 C6.34298828 7.44115234 6.34298828 7.44115234 7.01171875 8.84765625 C7.33785156 9.55792969 7.66398437 10.26820313 8 11 C7.34 11.66 6.68 12.32 6 13 C4.99759911 11.02204824 3.99813957 9.04260558 3 7.0625 C2.1646875 5.40927734 2.1646875 5.40927734 1.3125 3.72265625 C0 1 0 1 0 0 Z " transform="translate(339,316)" style="fill: #EEF1F2;"/><path d="M0 0 C0.66 0 1.32 0 2 0 C3.13480527 3.60993172 3.10015767 6.9842327 3.0625 10.75 C3.05347656 11.92046875 3.04445313 13.0909375 3.03515625 14.296875 C3.02355469 15.18890625 3.01195312 16.0809375 3 17 C2.67 17 2.34 17 2 17 C2 13.7 2 10.4 2 7 C1.34 7 0.68 7 0 7 C0 4.69 0 2.38 0 0 Z " transform="translate(516,543)" style="fill: #59676B;"/><path d="M0 0 C0.53625 0.226875 1.0725 0.45375 1.625 0.6875 C1.295 1.3475 0.965 2.0075 0.625 2.6875 C-0.035 2.6875 -0.695 2.6875 -1.375 2.6875 C-1.375 3.3475 -1.375 4.0075 -1.375 4.6875 C-2.695 5.0175 -4.015 5.3475 -5.375 5.6875 C-5.375 5.0275 -5.375 4.3675 -5.375 3.6875 C-6.365 3.3575 -7.355 3.0275 -8.375 2.6875 C-2.95961538 -0.38942308 -2.95961538 -0.38942308 0 0 Z " transform="translate(573.375,440.3125)" style="fill: #31434A;"/><path d="M0 0 C0 2.97 0 5.94 0 9 C-0.99 9 -1.98 9 -3 9 C-3.66 7.35 -4.32 5.7 -5 4 C-1.125 0 -1.125 0 0 0 Z " transform="translate(361,365)" style="fill: #7D8983;"/><path d="M0 0 C2.96404505 2.80804268 5.44499019 5.18315774 7 9 C6.01 9.33 5.02 9.66 4 10 C3.54625 9.236875 3.0925 8.47375 2.625 7.6875 C1.46175508 5.76367186 0.2470585 3.87058776 -1 2 C-0.67 1.34 -0.34 0.68 0 0 Z " transform="translate(345,358)" style="fill: #B9BDB2;"/><path d="M0 0 C1.98 0 3.96 0 6 0 C6 0.99 6 1.98 6 3 C3.29120665 4.35439668 0.99066732 4.06501451 -2 4 C-1.34 2.68 -0.68 1.36 0 0 Z " transform="translate(623,319)" style="fill: #C2C5B9;"/><path d="M0 0 C0.33 0 0.66 0 1 0 C1 1.65 1 3.3 1 5 C2.98 5.495 2.98 5.495 5 6 C4.625 7.9375 4.625 7.9375 4 10 C3.01 10.495 3.01 10.495 2 11 C2 10.34 2 9.68 2 9 C1.34 9 0.68 9 0 9 C0 6.03 0 3.06 0 0 Z " transform="translate(420,653)" style="fill: #10242E;"/><path d="M0 0 C-0.66 1.65 -1.32 3.3 -2 5 C-2.99 5 -3.98 5 -5 5 C-4.34 6.98 -3.68 8.96 -3 11 C-3.99 11.495 -3.99 11.495 -5 12 C-6.42041821 9.15916359 -6.31452272 7.14522722 -6 4 C-2.84210526 0 -2.84210526 0 0 0 Z " transform="translate(213,228)" style="fill: #2E434F;"/><path d="M0 0 C0.66 0.33 1.32 0.66 2 1 C-3.96583144 8.66742597 -3.96583144 8.66742597 -9 10 C-8.06409496 8.8944811 -7.12620142 7.79064547 -6.1875 6.6875 C-5.66542969 6.07261719 -5.14335937 5.45773438 -4.60546875 4.82421875 C-3.12827531 3.14575321 -1.59960869 1.56117966 0 0 Z " transform="translate(446,228)" style="fill: #273B44;"/><path d="M0 0 C1.32 0.66 2.64 1.32 4 2 C2.63016497 5.16115776 2.0109362 5.9927092 -1 8 C-2 6 -2 6 -1.0625 2.875 C-0.5365625 1.451875 -0.5365625 1.451875 0 0 Z " transform="translate(305,642)" style="fill: #213A46;"/><path d="M0 0 C0.99 0.33 1.98 0.66 3 1 C1.37660195 2.70884005 -0.29319053 4.37446717 -2 6 C-2.66 6 -3.32 6 -4 6 C-4.33 6.66 -4.66 7.32 -5 8 C-5.66 7.01 -6.32 6.02 -7 5 C-5.90554162 4.13342884 -4.79902219 3.28207276 -3.6875 2.4375 C-3.07261719 1.96183594 -2.45773437 1.48617188 -1.82421875 0.99609375 C-1.22222656 0.66738281 -0.62023437 0.33867187 0 0 Z " transform="translate(444,344)" style="fill: #BDC5BD;"/><path d="M0 0 C0.66 0.33 1.32 0.66 2 1 C2 1.99 2 2.98 2 4 C-1.375 4.625 -1.375 4.625 -5 5 C-5.66 4.34 -6.32 3.68 -7 3 C-4.69631264 1.93347808 -2.35981813 0.93578995 0 0 Z " transform="translate(551,290)" style="fill: #DFE6E7;"/><path d="M0 0 C0.99 0.33 1.98 0.66 3 1 C1.625 2.5 1.625 2.5 0 4 C-0.66 4 -1.32 4 -2 4 C-2.33 4.99 -2.66 5.98 -3 7 C-5.0625 7.6875 -5.0625 7.6875 -7 8 C-6.02133662 6.85373678 -5.04205413 5.70800212 -4.0625 4.5625 C-3.51722656 3.92441406 -2.97195313 3.28632812 -2.41015625 2.62890625 C-1.63204305 1.73008851 -0.84063472 0.84063472 0 0 Z " transform="translate(547,561)" style="fill: #27393C;"/><path d="M0 0 C1.22589844 0.01353516 1.22589844 0.01353516 2.4765625 0.02734375 C3.41628906 0.04474609 3.41628906 0.04474609 4.375 0.0625 C4.375 0.7225 4.375 1.3825 4.375 2.0625 C0.745 2.3925 -2.885 2.7225 -6.625 3.0625 C-6.625 2.4025 -6.625 1.7425 -6.625 1.0625 C-4.21954362 -0.14022819 -2.67503047 -0.03821472 0 0 Z " transform="translate(524.625,354.9375)" style="fill: #778A8B;"/><path d="M0 0 C0.33 1.32 0.66 2.64 1 4 C-1.31 5.98 -3.62 7.96 -6 10 C-5.67 8.68 -5.34 7.36 -5 6 C-3.66666667 5.33333333 -2.33333333 4.66666667 -1 4 C-0.19471111 1.94999129 -0.19471111 1.94999129 0 0 Z " transform="translate(595,557)" style="fill: #2B3C3F;"/><path d="M0 0 C-1.49097658 3.7952131 -3.75700849 5.61042731 -7 8 C-4.73913043 0 -4.73913043 0 0 0 Z " transform="translate(381,373)" style="fill: #8E9E9E;"/><path d="M0 0 C-0.33 0.99 -0.66 1.98 -1 3 C-4.5625 4.1875 -4.5625 4.1875 -8 5 C-8.33 4.34 -8.66 3.68 -9 3 C-2.25 0 -2.25 0 0 0 Z " transform="translate(464,361)" style="fill: #D1D4C7;"/><path d="M0 0 C0.66 0.66 1.32 1.32 2 2 C0.5682384 2.69937202 -0.87067032 3.38412718 -2.3125 4.0625 C-3.51326172 4.63677734 -3.51326172 4.63677734 -4.73828125 5.22265625 C-7 6 -7 6 -10 5 C-6.7 3.35 -3.4 1.7 0 0 Z " transform="translate(444,368)" style="fill: #B7C2C0;"/><path d="M0 0 C2.125 0.375 2.125 0.375 4 1 C4 1.66 4 2.32 4 3 C2.02 3.66 0.04 4.32 -2 5 C-2 2 -2 2 0 0 Z " transform="translate(414,365)" style="fill: #ABB9B8;"/><path d="M0 0 C2.66666667 1.33333333 5.33333333 2.66666667 8 4 C7.67 5.32 7.34 6.64 7 8 C5.83035398 6.8572081 4.66435444 5.71068285 3.5 4.5625 C2.8503125 3.92441406 2.200625 3.28632813 1.53125 2.62890625 C0 1 0 1 0 0 Z " transform="translate(304,302)" style="fill: #A1A19A;"/><path d="M0 0 C0.66 0.33 1.32 0.66 2 1 C1.01 1.33 0.02 1.66 -1 2 C-1 2.66 -1 3.32 -1 4 C-0.34 4.33 0.32 4.66 1 5 C-2.75 6.125 -2.75 6.125 -5 5 C-5 4.01 -5 3.02 -5 2 C-2.625 0.9375 -2.625 0.9375 0 0 Z " transform="translate(564,285)" style="fill: #E6EBEB;"/><path d="M0 0 C0.66 0.33 1.32 0.66 2 1 C-0.31 3.64 -2.62 6.28 -5 9 C-5.66 8.67 -6.32 8.34 -7 8 C-4.69 5.36 -2.38 2.72 0 0 Z " transform="translate(228,184)" style="fill: #3A4B52;"/><path d="M0 0 C0.33 0.99 0.66 1.98 1 3 C-0.62339805 4.70884005 -2.29319053 6.37446717 -4 8 C-4.66 8 -5.32 8 -6 8 C-4.55746343 4.63408134 -2.66735273 2.48952921 0 0 Z " transform="translate(362,61)" style="fill: #2B3F48;"/><path d="M0 0 C0 0.99 0 1.98 0 3 C-3 5.1875 -3 5.1875 -6 7 C-6 6.01 -6 5.02 -6 4 C-3 1.8125 -3 1.8125 0 0 Z " transform="translate(441,327)" style="fill: #24363E;"/><path d="M0 0 C0 3.90838866 -1.50567876 5.11594107 -4 8 C-4.99 7.67 -5.98 7.34 -7 7 C-4.69 4.69 -2.38 2.38 0 0 Z " transform="translate(428,246)" style="fill: #273A46;"/><path d="M0 0 C0 0.66 0 1.32 0 2 C-0.66 2 -1.32 2 -2 2 C-2 2.66 -2 3.32 -2 4 C-3.32 4 -4.64 4 -6 4 C-6.33 3.01 -6.66 2.02 -7 1 C-4.50935112 0.31292445 -2.62113708 0 0 0 Z " transform="translate(448,370)" style="fill: #8D948F;"/><path d="M0 0 C-0.99 1.485 -0.99 1.485 -2 3 C-5.625 3.1875 -5.625 3.1875 -9 3 C-9 2.34 -9 1.68 -9 1 C-5.92677456 0.08941469 -3.19902639 -0.08886184 0 0 Z " transform="translate(220,240)" style="fill: #243847;"/><path d="M0 0 C1.98 0.495 1.98 0.495 4 1 C3.01 1.495 3.01 1.495 2 2 C1.34786708 4.02463255 1.34786708 4.02463255 1 6 C0.34 5.34 -0.32 4.68 -1 4 C-0.625 1.875 -0.625 1.875 0 0 Z " transform="translate(403,567)" style="fill: #283A3F;"/></svg>