<?xml version="1.0" standalone="no"?>
<!DOCTYPE svg PUBLIC "-//W3C//DTD SVG 20010904//EN"
 "http://www.w3.org/TR/2001/REC-SVG-20010904/DTD/svg10.dtd">
<svg version="1.0" xmlns="http://www.w3.org/2000/svg"
 width="900.000000pt" height="780.000000pt" viewBox="0 0 900.000000 780.000000"
 preserveAspectRatio="xMidYMid meet">

<g transform="translate(0.000000,780.000000) scale(0.100000,-0.100000)"
fill="#000000" stroke="none">
<path d="M3780 6291 c-383 -148 -3179 -1223 -3253 -1250 -11 -4 89 -39 270
-95 312 -96 933 -322 933 -339 0 -6 -54 -142 -119 -301 -66 -160 -136 -331
-156 -381 l-35 -90 -57 -25 c-117 -50 -221 -188 -243 -324 -11 -66 2 -160 31
-225 48 -109 159 -211 263 -242 l46 -13 0 -61 c0 -34 -5 -88 -11 -121 -23
-128 -216 -538 -390 -826 -150 -249 -179 -328 -157 -432 20 -95 131 -170 272
-183 36 -3 98 1 151 11 113 19 409 108 476 141 65 33 125 89 151 139 29 56 35
175 15 286 -9 47 -21 130 -27 185 -15 142 -35 252 -87 475 -49 215 -83 383
-83 417 0 13 8 24 19 28 37 12 130 116 163 183 31 63 33 73 33 177 0 103 -2
114 -31 176 -19 39 -55 91 -88 125 l-56 58 0 66 c0 120 58 307 135 439 57 97
175 216 238 240 29 10 329 118 667 239 338 121 880 315 1203 431 l589 211 115
-36 c63 -20 111 -40 106 -44 -4 -4 -558 -207 -1230 -451 -672 -244 -1219 -447
-1215 -451 4 -3 472 -155 1041 -337 l1034 -331 256 79 c225 70 2045 638 3294
1028 240 75 434 140 430 144 -5 4 -195 73 -423 153 -228 79 -622 217 -875 306
-253 89 -644 226 -870 305 -225 79 -770 270 -1209 424 -440 155 -807 281 -815
280 -9 -1 -234 -85 -501 -188z"/>
</g>
</svg>
